G04 EAGLE Gerber X2 export*
%TF.Part,Single*%
%TF.FileFunction,Copper,L1,Top,Mixed*%
%TF.FilePolarity,Positive*%
%TF.GenerationSoftware,Autodesk,EAGLE,9.0.0*%
%TF.CreationDate,2019-09-16T04:44:38Z*%
G75*
%MOMM*%
%FSLAX34Y34*%
%LPD*%
%AMOC8*
5,1,8,0,0,1.08239X$1,22.5*%
G01*
%ADD10C,0.152400*%
%ADD11P,1.429621X8X112.500000*%
%ADD12C,1.524000*%
%ADD13C,1.320800*%
%ADD14P,1.429621X8X202.500000*%
%ADD15P,1.429621X8X292.500000*%
%ADD16C,1.308000*%
%ADD17C,1.508000*%
%ADD18C,0.304800*%


D10*
X51562Y26162D02*
X51562Y42418D01*
X56078Y42418D01*
X56211Y42416D01*
X56343Y42410D01*
X56475Y42400D01*
X56607Y42387D01*
X56739Y42369D01*
X56869Y42348D01*
X57000Y42323D01*
X57129Y42294D01*
X57257Y42261D01*
X57385Y42225D01*
X57511Y42185D01*
X57636Y42141D01*
X57760Y42093D01*
X57882Y42042D01*
X58003Y41987D01*
X58122Y41929D01*
X58240Y41867D01*
X58355Y41802D01*
X58469Y41733D01*
X58580Y41662D01*
X58689Y41586D01*
X58796Y41508D01*
X58901Y41427D01*
X59003Y41342D01*
X59103Y41255D01*
X59200Y41165D01*
X59295Y41072D01*
X59386Y40976D01*
X59475Y40878D01*
X59561Y40777D01*
X59644Y40673D01*
X59724Y40567D01*
X59800Y40459D01*
X59874Y40349D01*
X59944Y40236D01*
X60011Y40122D01*
X60074Y40005D01*
X60134Y39887D01*
X60191Y39767D01*
X60244Y39645D01*
X60293Y39522D01*
X60339Y39398D01*
X60381Y39272D01*
X60419Y39145D01*
X60454Y39017D01*
X60485Y38888D01*
X60512Y38759D01*
X60535Y38628D01*
X60555Y38497D01*
X60570Y38365D01*
X60582Y38233D01*
X60590Y38101D01*
X60594Y37968D01*
X60594Y37836D01*
X60590Y37703D01*
X60582Y37571D01*
X60570Y37439D01*
X60555Y37307D01*
X60535Y37176D01*
X60512Y37045D01*
X60485Y36916D01*
X60454Y36787D01*
X60419Y36659D01*
X60381Y36532D01*
X60339Y36406D01*
X60293Y36282D01*
X60244Y36159D01*
X60191Y36037D01*
X60134Y35917D01*
X60074Y35799D01*
X60011Y35682D01*
X59944Y35568D01*
X59874Y35455D01*
X59800Y35345D01*
X59724Y35237D01*
X59644Y35131D01*
X59561Y35027D01*
X59475Y34926D01*
X59386Y34828D01*
X59295Y34732D01*
X59200Y34639D01*
X59103Y34549D01*
X59003Y34462D01*
X58901Y34377D01*
X58796Y34296D01*
X58689Y34218D01*
X58580Y34142D01*
X58469Y34071D01*
X58355Y34002D01*
X58240Y33937D01*
X58122Y33875D01*
X58003Y33817D01*
X57882Y33762D01*
X57760Y33711D01*
X57636Y33663D01*
X57511Y33619D01*
X57385Y33579D01*
X57257Y33543D01*
X57129Y33510D01*
X57000Y33481D01*
X56869Y33456D01*
X56739Y33435D01*
X56607Y33417D01*
X56475Y33404D01*
X56343Y33394D01*
X56211Y33388D01*
X56078Y33386D01*
X56078Y33387D02*
X51562Y33387D01*
X56981Y33387D02*
X60593Y26162D01*
X67623Y30678D02*
X67623Y42418D01*
X67622Y30678D02*
X67624Y30545D01*
X67630Y30413D01*
X67640Y30281D01*
X67653Y30149D01*
X67671Y30017D01*
X67692Y29887D01*
X67717Y29756D01*
X67746Y29627D01*
X67779Y29499D01*
X67815Y29371D01*
X67855Y29245D01*
X67899Y29120D01*
X67947Y28996D01*
X67998Y28874D01*
X68053Y28753D01*
X68111Y28634D01*
X68173Y28516D01*
X68238Y28401D01*
X68307Y28287D01*
X68378Y28176D01*
X68454Y28067D01*
X68532Y27960D01*
X68613Y27855D01*
X68698Y27753D01*
X68785Y27653D01*
X68875Y27556D01*
X68968Y27461D01*
X69064Y27370D01*
X69162Y27281D01*
X69263Y27195D01*
X69367Y27112D01*
X69473Y27032D01*
X69581Y26956D01*
X69691Y26882D01*
X69804Y26812D01*
X69918Y26745D01*
X70035Y26682D01*
X70153Y26622D01*
X70273Y26565D01*
X70395Y26512D01*
X70518Y26463D01*
X70642Y26417D01*
X70768Y26375D01*
X70895Y26337D01*
X71023Y26302D01*
X71152Y26271D01*
X71281Y26244D01*
X71412Y26221D01*
X71543Y26201D01*
X71675Y26186D01*
X71807Y26174D01*
X71939Y26166D01*
X72072Y26162D01*
X72204Y26162D01*
X72337Y26166D01*
X72469Y26174D01*
X72601Y26186D01*
X72733Y26201D01*
X72864Y26221D01*
X72995Y26244D01*
X73124Y26271D01*
X73253Y26302D01*
X73381Y26337D01*
X73508Y26375D01*
X73634Y26417D01*
X73758Y26463D01*
X73881Y26512D01*
X74003Y26565D01*
X74123Y26622D01*
X74241Y26682D01*
X74358Y26745D01*
X74472Y26812D01*
X74585Y26882D01*
X74695Y26956D01*
X74803Y27032D01*
X74909Y27112D01*
X75013Y27195D01*
X75114Y27281D01*
X75212Y27370D01*
X75308Y27461D01*
X75401Y27556D01*
X75491Y27653D01*
X75578Y27753D01*
X75663Y27855D01*
X75744Y27960D01*
X75822Y28067D01*
X75898Y28176D01*
X75969Y28287D01*
X76038Y28401D01*
X76103Y28516D01*
X76165Y28634D01*
X76223Y28753D01*
X76278Y28874D01*
X76329Y28996D01*
X76377Y29120D01*
X76421Y29245D01*
X76461Y29371D01*
X76497Y29499D01*
X76530Y29627D01*
X76559Y29756D01*
X76584Y29887D01*
X76605Y30017D01*
X76623Y30149D01*
X76636Y30281D01*
X76646Y30413D01*
X76652Y30545D01*
X76654Y30678D01*
X76654Y42418D01*
X84296Y42418D02*
X84296Y26162D01*
X93327Y26162D02*
X84296Y42418D01*
X93327Y42418D02*
X93327Y26162D01*
X99788Y24356D02*
X107013Y44224D01*
X121463Y29774D02*
X121461Y29656D01*
X121455Y29538D01*
X121446Y29420D01*
X121432Y29303D01*
X121415Y29186D01*
X121394Y29069D01*
X121369Y28954D01*
X121340Y28839D01*
X121307Y28725D01*
X121271Y28613D01*
X121231Y28502D01*
X121188Y28392D01*
X121141Y28283D01*
X121091Y28176D01*
X121036Y28071D01*
X120979Y27968D01*
X120918Y27867D01*
X120854Y27767D01*
X120787Y27670D01*
X120717Y27575D01*
X120643Y27483D01*
X120567Y27392D01*
X120487Y27305D01*
X120405Y27220D01*
X120320Y27138D01*
X120233Y27058D01*
X120142Y26982D01*
X120050Y26908D01*
X119955Y26838D01*
X119858Y26771D01*
X119758Y26707D01*
X119657Y26646D01*
X119554Y26589D01*
X119449Y26534D01*
X119342Y26484D01*
X119233Y26437D01*
X119123Y26394D01*
X119012Y26354D01*
X118900Y26318D01*
X118786Y26285D01*
X118671Y26256D01*
X118556Y26231D01*
X118439Y26210D01*
X118322Y26193D01*
X118205Y26179D01*
X118087Y26170D01*
X117969Y26164D01*
X117851Y26162D01*
X117668Y26164D01*
X117486Y26171D01*
X117304Y26182D01*
X117122Y26197D01*
X116940Y26217D01*
X116759Y26240D01*
X116579Y26269D01*
X116399Y26301D01*
X116220Y26338D01*
X116043Y26379D01*
X115866Y26425D01*
X115690Y26474D01*
X115516Y26528D01*
X115342Y26586D01*
X115171Y26648D01*
X115001Y26714D01*
X114832Y26785D01*
X114665Y26859D01*
X114500Y26937D01*
X114337Y27019D01*
X114176Y27105D01*
X114017Y27195D01*
X113860Y27289D01*
X113706Y27386D01*
X113554Y27487D01*
X113404Y27592D01*
X113257Y27700D01*
X113113Y27811D01*
X112971Y27926D01*
X112832Y28045D01*
X112696Y28167D01*
X112563Y28292D01*
X112433Y28420D01*
X112884Y38806D02*
X112886Y38924D01*
X112892Y39042D01*
X112901Y39160D01*
X112915Y39277D01*
X112932Y39394D01*
X112953Y39511D01*
X112978Y39626D01*
X113007Y39741D01*
X113040Y39855D01*
X113076Y39967D01*
X113116Y40078D01*
X113159Y40188D01*
X113206Y40297D01*
X113256Y40404D01*
X113311Y40509D01*
X113368Y40612D01*
X113429Y40713D01*
X113493Y40813D01*
X113560Y40910D01*
X113630Y41005D01*
X113704Y41097D01*
X113780Y41188D01*
X113860Y41275D01*
X113942Y41360D01*
X114027Y41442D01*
X114114Y41522D01*
X114205Y41598D01*
X114297Y41672D01*
X114392Y41742D01*
X114489Y41809D01*
X114589Y41873D01*
X114690Y41934D01*
X114793Y41992D01*
X114898Y42046D01*
X115005Y42096D01*
X115114Y42143D01*
X115224Y42187D01*
X115335Y42226D01*
X115448Y42262D01*
X115561Y42295D01*
X115676Y42324D01*
X115791Y42349D01*
X115908Y42370D01*
X116025Y42387D01*
X116142Y42401D01*
X116260Y42410D01*
X116378Y42416D01*
X116496Y42418D01*
X116657Y42416D01*
X116819Y42410D01*
X116980Y42401D01*
X117141Y42387D01*
X117301Y42370D01*
X117461Y42349D01*
X117621Y42324D01*
X117780Y42295D01*
X117938Y42263D01*
X118095Y42227D01*
X118251Y42187D01*
X118407Y42143D01*
X118561Y42095D01*
X118714Y42044D01*
X118866Y41990D01*
X119017Y41931D01*
X119166Y41870D01*
X119313Y41804D01*
X119459Y41735D01*
X119604Y41663D01*
X119746Y41587D01*
X119887Y41508D01*
X120026Y41426D01*
X120162Y41340D01*
X120297Y41251D01*
X120430Y41159D01*
X120560Y41063D01*
X114690Y35645D02*
X114589Y35707D01*
X114489Y35772D01*
X114392Y35841D01*
X114297Y35913D01*
X114204Y35987D01*
X114114Y36065D01*
X114026Y36146D01*
X113941Y36229D01*
X113859Y36315D01*
X113780Y36404D01*
X113703Y36495D01*
X113630Y36589D01*
X113559Y36685D01*
X113492Y36783D01*
X113428Y36883D01*
X113367Y36986D01*
X113310Y37090D01*
X113256Y37196D01*
X113206Y37304D01*
X113159Y37413D01*
X113115Y37524D01*
X113075Y37636D01*
X113039Y37750D01*
X113007Y37864D01*
X112978Y37980D01*
X112953Y38096D01*
X112932Y38213D01*
X112915Y38331D01*
X112901Y38449D01*
X112892Y38568D01*
X112886Y38687D01*
X112884Y38806D01*
X119657Y32935D02*
X119758Y32873D01*
X119858Y32808D01*
X119955Y32739D01*
X120050Y32667D01*
X120143Y32593D01*
X120233Y32515D01*
X120321Y32434D01*
X120406Y32351D01*
X120488Y32265D01*
X120567Y32176D01*
X120644Y32085D01*
X120717Y31991D01*
X120788Y31895D01*
X120855Y31797D01*
X120919Y31697D01*
X120980Y31594D01*
X121037Y31490D01*
X121091Y31384D01*
X121141Y31276D01*
X121188Y31167D01*
X121232Y31056D01*
X121272Y30944D01*
X121308Y30830D01*
X121340Y30716D01*
X121369Y30600D01*
X121394Y30484D01*
X121415Y30367D01*
X121432Y30249D01*
X121446Y30131D01*
X121455Y30012D01*
X121461Y29893D01*
X121463Y29774D01*
X119657Y32935D02*
X114690Y35645D01*
X131016Y42418D02*
X131016Y26162D01*
X126500Y42418D02*
X135531Y42418D01*
X141090Y37902D02*
X141090Y30678D01*
X141089Y37902D02*
X141091Y38035D01*
X141097Y38167D01*
X141107Y38299D01*
X141120Y38431D01*
X141138Y38563D01*
X141159Y38693D01*
X141184Y38824D01*
X141213Y38953D01*
X141246Y39081D01*
X141282Y39209D01*
X141322Y39335D01*
X141366Y39460D01*
X141414Y39584D01*
X141465Y39706D01*
X141520Y39827D01*
X141578Y39946D01*
X141640Y40064D01*
X141705Y40179D01*
X141774Y40293D01*
X141845Y40404D01*
X141921Y40513D01*
X141999Y40620D01*
X142080Y40725D01*
X142165Y40827D01*
X142252Y40927D01*
X142342Y41024D01*
X142435Y41119D01*
X142531Y41210D01*
X142629Y41299D01*
X142730Y41385D01*
X142834Y41468D01*
X142940Y41548D01*
X143048Y41624D01*
X143158Y41698D01*
X143271Y41768D01*
X143385Y41835D01*
X143502Y41898D01*
X143620Y41958D01*
X143740Y42015D01*
X143862Y42068D01*
X143985Y42117D01*
X144109Y42163D01*
X144235Y42205D01*
X144362Y42243D01*
X144490Y42278D01*
X144619Y42309D01*
X144748Y42336D01*
X144879Y42359D01*
X145010Y42379D01*
X145142Y42394D01*
X145274Y42406D01*
X145406Y42414D01*
X145539Y42418D01*
X145671Y42418D01*
X145804Y42414D01*
X145936Y42406D01*
X146068Y42394D01*
X146200Y42379D01*
X146331Y42359D01*
X146462Y42336D01*
X146591Y42309D01*
X146720Y42278D01*
X146848Y42243D01*
X146975Y42205D01*
X147101Y42163D01*
X147225Y42117D01*
X147348Y42068D01*
X147470Y42015D01*
X147590Y41958D01*
X147708Y41898D01*
X147825Y41835D01*
X147939Y41768D01*
X148052Y41698D01*
X148162Y41624D01*
X148270Y41548D01*
X148376Y41468D01*
X148480Y41385D01*
X148581Y41299D01*
X148679Y41210D01*
X148775Y41119D01*
X148868Y41024D01*
X148958Y40927D01*
X149045Y40827D01*
X149130Y40725D01*
X149211Y40620D01*
X149289Y40513D01*
X149365Y40404D01*
X149436Y40293D01*
X149505Y40179D01*
X149570Y40064D01*
X149632Y39946D01*
X149690Y39827D01*
X149745Y39706D01*
X149796Y39584D01*
X149844Y39460D01*
X149888Y39335D01*
X149928Y39209D01*
X149964Y39081D01*
X149997Y38953D01*
X150026Y38824D01*
X150051Y38693D01*
X150072Y38563D01*
X150090Y38431D01*
X150103Y38299D01*
X150113Y38167D01*
X150119Y38035D01*
X150121Y37902D01*
X150121Y30678D01*
X150119Y30545D01*
X150113Y30413D01*
X150103Y30281D01*
X150090Y30149D01*
X150072Y30017D01*
X150051Y29887D01*
X150026Y29756D01*
X149997Y29627D01*
X149964Y29499D01*
X149928Y29371D01*
X149888Y29245D01*
X149844Y29120D01*
X149796Y28996D01*
X149745Y28874D01*
X149690Y28753D01*
X149632Y28634D01*
X149570Y28516D01*
X149505Y28401D01*
X149436Y28287D01*
X149365Y28176D01*
X149289Y28067D01*
X149211Y27960D01*
X149130Y27855D01*
X149045Y27753D01*
X148958Y27653D01*
X148868Y27556D01*
X148775Y27461D01*
X148679Y27370D01*
X148581Y27281D01*
X148480Y27195D01*
X148376Y27112D01*
X148270Y27032D01*
X148162Y26956D01*
X148052Y26882D01*
X147939Y26812D01*
X147825Y26745D01*
X147708Y26682D01*
X147590Y26622D01*
X147470Y26565D01*
X147348Y26512D01*
X147225Y26463D01*
X147101Y26417D01*
X146975Y26375D01*
X146848Y26337D01*
X146720Y26302D01*
X146591Y26271D01*
X146462Y26244D01*
X146331Y26221D01*
X146200Y26201D01*
X146068Y26186D01*
X145936Y26174D01*
X145804Y26166D01*
X145671Y26162D01*
X145539Y26162D01*
X145406Y26166D01*
X145274Y26174D01*
X145142Y26186D01*
X145010Y26201D01*
X144879Y26221D01*
X144748Y26244D01*
X144619Y26271D01*
X144490Y26302D01*
X144362Y26337D01*
X144235Y26375D01*
X144109Y26417D01*
X143985Y26463D01*
X143862Y26512D01*
X143740Y26565D01*
X143620Y26622D01*
X143502Y26682D01*
X143385Y26745D01*
X143271Y26812D01*
X143158Y26882D01*
X143048Y26956D01*
X142940Y27032D01*
X142834Y27112D01*
X142730Y27195D01*
X142629Y27281D01*
X142531Y27370D01*
X142435Y27461D01*
X142342Y27556D01*
X142252Y27653D01*
X142165Y27753D01*
X142080Y27855D01*
X141999Y27960D01*
X141921Y28067D01*
X141845Y28176D01*
X141774Y28287D01*
X141705Y28401D01*
X141640Y28516D01*
X141578Y28634D01*
X141520Y28753D01*
X141465Y28874D01*
X141414Y28996D01*
X141366Y29120D01*
X141322Y29245D01*
X141282Y29371D01*
X141246Y29499D01*
X141213Y29627D01*
X141184Y29756D01*
X141159Y29887D01*
X141138Y30017D01*
X141120Y30149D01*
X141107Y30281D01*
X141097Y30413D01*
X141091Y30545D01*
X141089Y30678D01*
X157453Y26162D02*
X157453Y42418D01*
X161968Y42418D01*
X162101Y42416D01*
X162233Y42410D01*
X162365Y42400D01*
X162497Y42387D01*
X162629Y42369D01*
X162759Y42348D01*
X162890Y42323D01*
X163019Y42294D01*
X163147Y42261D01*
X163275Y42225D01*
X163401Y42185D01*
X163526Y42141D01*
X163650Y42093D01*
X163772Y42042D01*
X163893Y41987D01*
X164012Y41929D01*
X164130Y41867D01*
X164245Y41802D01*
X164359Y41733D01*
X164470Y41662D01*
X164579Y41586D01*
X164686Y41508D01*
X164791Y41427D01*
X164893Y41342D01*
X164993Y41255D01*
X165090Y41165D01*
X165185Y41072D01*
X165276Y40976D01*
X165365Y40878D01*
X165451Y40777D01*
X165534Y40673D01*
X165614Y40567D01*
X165690Y40459D01*
X165764Y40349D01*
X165834Y40236D01*
X165901Y40122D01*
X165964Y40005D01*
X166024Y39887D01*
X166081Y39767D01*
X166134Y39645D01*
X166183Y39522D01*
X166229Y39398D01*
X166271Y39272D01*
X166309Y39145D01*
X166344Y39017D01*
X166375Y38888D01*
X166402Y38759D01*
X166425Y38628D01*
X166445Y38497D01*
X166460Y38365D01*
X166472Y38233D01*
X166480Y38101D01*
X166484Y37968D01*
X166484Y37836D01*
X166480Y37703D01*
X166472Y37571D01*
X166460Y37439D01*
X166445Y37307D01*
X166425Y37176D01*
X166402Y37045D01*
X166375Y36916D01*
X166344Y36787D01*
X166309Y36659D01*
X166271Y36532D01*
X166229Y36406D01*
X166183Y36282D01*
X166134Y36159D01*
X166081Y36037D01*
X166024Y35917D01*
X165964Y35799D01*
X165901Y35682D01*
X165834Y35568D01*
X165764Y35455D01*
X165690Y35345D01*
X165614Y35237D01*
X165534Y35131D01*
X165451Y35027D01*
X165365Y34926D01*
X165276Y34828D01*
X165185Y34732D01*
X165090Y34639D01*
X164993Y34549D01*
X164893Y34462D01*
X164791Y34377D01*
X164686Y34296D01*
X164579Y34218D01*
X164470Y34142D01*
X164359Y34071D01*
X164245Y34002D01*
X164130Y33937D01*
X164012Y33875D01*
X163893Y33817D01*
X163772Y33762D01*
X163650Y33711D01*
X163526Y33663D01*
X163401Y33619D01*
X163275Y33579D01*
X163147Y33543D01*
X163019Y33510D01*
X162890Y33481D01*
X162759Y33456D01*
X162629Y33435D01*
X162497Y33417D01*
X162365Y33404D01*
X162233Y33394D01*
X162101Y33388D01*
X161968Y33386D01*
X161968Y33387D02*
X157453Y33387D01*
X394462Y305562D02*
X394462Y321818D01*
X398978Y321818D01*
X399109Y321816D01*
X399241Y321810D01*
X399372Y321801D01*
X399502Y321787D01*
X399633Y321770D01*
X399762Y321749D01*
X399891Y321725D01*
X400019Y321696D01*
X400147Y321664D01*
X400273Y321628D01*
X400398Y321589D01*
X400523Y321546D01*
X400645Y321499D01*
X400767Y321449D01*
X400887Y321395D01*
X401005Y321338D01*
X401121Y321277D01*
X401236Y321213D01*
X401349Y321146D01*
X401460Y321075D01*
X401568Y321001D01*
X401675Y320924D01*
X401779Y320844D01*
X401881Y320761D01*
X401980Y320676D01*
X402077Y320587D01*
X402171Y320495D01*
X402263Y320401D01*
X402352Y320304D01*
X402437Y320205D01*
X402520Y320103D01*
X402600Y319999D01*
X402677Y319892D01*
X402751Y319784D01*
X402822Y319673D01*
X402889Y319560D01*
X402953Y319445D01*
X403014Y319329D01*
X403071Y319211D01*
X403125Y319091D01*
X403175Y318969D01*
X403222Y318847D01*
X403265Y318722D01*
X403304Y318597D01*
X403340Y318471D01*
X403372Y318343D01*
X403401Y318215D01*
X403425Y318086D01*
X403446Y317957D01*
X403463Y317826D01*
X403477Y317696D01*
X403486Y317565D01*
X403492Y317433D01*
X403494Y317302D01*
X403493Y317302D02*
X403493Y310078D01*
X403494Y310078D02*
X403492Y309947D01*
X403486Y309815D01*
X403477Y309684D01*
X403463Y309554D01*
X403446Y309423D01*
X403425Y309294D01*
X403401Y309165D01*
X403372Y309037D01*
X403340Y308909D01*
X403304Y308783D01*
X403265Y308658D01*
X403222Y308533D01*
X403175Y308411D01*
X403125Y308289D01*
X403071Y308169D01*
X403014Y308051D01*
X402953Y307935D01*
X402889Y307820D01*
X402822Y307707D01*
X402751Y307596D01*
X402677Y307488D01*
X402600Y307381D01*
X402520Y307277D01*
X402437Y307175D01*
X402352Y307076D01*
X402263Y306979D01*
X402171Y306885D01*
X402077Y306793D01*
X401980Y306704D01*
X401881Y306619D01*
X401779Y306536D01*
X401675Y306456D01*
X401568Y306379D01*
X401460Y306305D01*
X401349Y306234D01*
X401236Y306167D01*
X401121Y306103D01*
X401005Y306042D01*
X400887Y305985D01*
X400767Y305931D01*
X400645Y305881D01*
X400523Y305834D01*
X400398Y305791D01*
X400273Y305752D01*
X400147Y305716D01*
X400019Y305684D01*
X399891Y305655D01*
X399762Y305631D01*
X399632Y305610D01*
X399502Y305593D01*
X399372Y305579D01*
X399241Y305570D01*
X399109Y305564D01*
X398978Y305562D01*
X394462Y305562D01*
X410614Y318206D02*
X415130Y321818D01*
X415130Y305562D01*
X419645Y305562D02*
X410614Y305562D01*
X426246Y305562D02*
X430761Y305562D01*
X430894Y305564D01*
X431026Y305570D01*
X431158Y305580D01*
X431290Y305593D01*
X431422Y305611D01*
X431552Y305632D01*
X431683Y305657D01*
X431812Y305686D01*
X431940Y305719D01*
X432068Y305755D01*
X432194Y305795D01*
X432319Y305839D01*
X432443Y305887D01*
X432565Y305938D01*
X432686Y305993D01*
X432805Y306051D01*
X432923Y306113D01*
X433038Y306178D01*
X433152Y306247D01*
X433263Y306318D01*
X433372Y306394D01*
X433479Y306472D01*
X433584Y306553D01*
X433686Y306638D01*
X433786Y306725D01*
X433883Y306815D01*
X433978Y306908D01*
X434069Y307004D01*
X434158Y307102D01*
X434244Y307203D01*
X434327Y307307D01*
X434407Y307413D01*
X434483Y307521D01*
X434557Y307631D01*
X434627Y307744D01*
X434694Y307858D01*
X434757Y307975D01*
X434817Y308093D01*
X434874Y308213D01*
X434927Y308335D01*
X434976Y308458D01*
X435022Y308582D01*
X435064Y308708D01*
X435102Y308835D01*
X435137Y308963D01*
X435168Y309092D01*
X435195Y309221D01*
X435218Y309352D01*
X435238Y309483D01*
X435253Y309615D01*
X435265Y309747D01*
X435273Y309879D01*
X435277Y310012D01*
X435277Y310144D01*
X435273Y310277D01*
X435265Y310409D01*
X435253Y310541D01*
X435238Y310673D01*
X435218Y310804D01*
X435195Y310935D01*
X435168Y311064D01*
X435137Y311193D01*
X435102Y311321D01*
X435064Y311448D01*
X435022Y311574D01*
X434976Y311698D01*
X434927Y311821D01*
X434874Y311943D01*
X434817Y312063D01*
X434757Y312181D01*
X434694Y312298D01*
X434627Y312412D01*
X434557Y312525D01*
X434483Y312635D01*
X434407Y312743D01*
X434327Y312849D01*
X434244Y312953D01*
X434158Y313054D01*
X434069Y313152D01*
X433978Y313248D01*
X433883Y313341D01*
X433786Y313431D01*
X433686Y313518D01*
X433584Y313603D01*
X433479Y313684D01*
X433372Y313762D01*
X433263Y313838D01*
X433152Y313909D01*
X433038Y313978D01*
X432923Y314043D01*
X432805Y314105D01*
X432686Y314163D01*
X432565Y314218D01*
X432443Y314269D01*
X432319Y314317D01*
X432194Y314361D01*
X432068Y314401D01*
X431940Y314437D01*
X431812Y314470D01*
X431683Y314499D01*
X431552Y314524D01*
X431422Y314545D01*
X431290Y314563D01*
X431158Y314576D01*
X431026Y314586D01*
X430894Y314592D01*
X430761Y314594D01*
X431664Y321818D02*
X426246Y321818D01*
X431664Y321818D02*
X431783Y321816D01*
X431903Y321810D01*
X432022Y321800D01*
X432140Y321786D01*
X432259Y321769D01*
X432376Y321747D01*
X432493Y321722D01*
X432608Y321692D01*
X432723Y321659D01*
X432837Y321622D01*
X432949Y321582D01*
X433060Y321537D01*
X433169Y321489D01*
X433277Y321438D01*
X433383Y321383D01*
X433487Y321324D01*
X433589Y321262D01*
X433689Y321197D01*
X433787Y321128D01*
X433883Y321056D01*
X433976Y320981D01*
X434066Y320904D01*
X434154Y320823D01*
X434239Y320739D01*
X434321Y320652D01*
X434401Y320563D01*
X434477Y320471D01*
X434551Y320377D01*
X434621Y320280D01*
X434688Y320182D01*
X434752Y320081D01*
X434812Y319977D01*
X434869Y319872D01*
X434922Y319765D01*
X434972Y319657D01*
X435018Y319547D01*
X435060Y319435D01*
X435099Y319322D01*
X435134Y319208D01*
X435165Y319093D01*
X435193Y318976D01*
X435216Y318859D01*
X435236Y318742D01*
X435252Y318623D01*
X435264Y318504D01*
X435272Y318385D01*
X435276Y318266D01*
X435276Y318146D01*
X435272Y318027D01*
X435264Y317908D01*
X435252Y317789D01*
X435236Y317670D01*
X435216Y317553D01*
X435193Y317436D01*
X435165Y317319D01*
X435134Y317204D01*
X435099Y317090D01*
X435060Y316977D01*
X435018Y316865D01*
X434972Y316755D01*
X434922Y316647D01*
X434869Y316540D01*
X434812Y316435D01*
X434752Y316331D01*
X434688Y316230D01*
X434621Y316132D01*
X434551Y316035D01*
X434477Y315941D01*
X434401Y315849D01*
X434321Y315760D01*
X434239Y315673D01*
X434154Y315589D01*
X434066Y315508D01*
X433976Y315431D01*
X433883Y315356D01*
X433787Y315284D01*
X433689Y315215D01*
X433589Y315150D01*
X433487Y315088D01*
X433383Y315029D01*
X433277Y314974D01*
X433169Y314923D01*
X433060Y314875D01*
X432949Y314830D01*
X432837Y314790D01*
X432723Y314753D01*
X432608Y314720D01*
X432493Y314690D01*
X432376Y314665D01*
X432259Y314643D01*
X432140Y314626D01*
X432022Y314612D01*
X431903Y314602D01*
X431783Y314596D01*
X431664Y314594D01*
X431664Y314593D02*
X428052Y314593D01*
X191262Y194818D02*
X196681Y178562D01*
X202099Y194818D01*
X211369Y178562D02*
X214982Y178562D01*
X211369Y178562D02*
X211251Y178564D01*
X211133Y178570D01*
X211015Y178579D01*
X210898Y178593D01*
X210781Y178610D01*
X210664Y178631D01*
X210549Y178656D01*
X210434Y178685D01*
X210320Y178718D01*
X210208Y178754D01*
X210097Y178794D01*
X209987Y178837D01*
X209878Y178884D01*
X209771Y178934D01*
X209666Y178989D01*
X209563Y179046D01*
X209462Y179107D01*
X209362Y179171D01*
X209265Y179238D01*
X209170Y179308D01*
X209078Y179382D01*
X208987Y179458D01*
X208900Y179538D01*
X208815Y179620D01*
X208733Y179705D01*
X208653Y179792D01*
X208577Y179883D01*
X208503Y179975D01*
X208433Y180070D01*
X208366Y180167D01*
X208302Y180267D01*
X208241Y180368D01*
X208184Y180471D01*
X208129Y180576D01*
X208079Y180683D01*
X208032Y180792D01*
X207989Y180902D01*
X207949Y181013D01*
X207913Y181125D01*
X207880Y181239D01*
X207851Y181354D01*
X207826Y181469D01*
X207805Y181586D01*
X207788Y181703D01*
X207774Y181820D01*
X207765Y181938D01*
X207759Y182056D01*
X207757Y182174D01*
X207757Y191206D01*
X207759Y191324D01*
X207765Y191442D01*
X207774Y191560D01*
X207788Y191677D01*
X207805Y191794D01*
X207826Y191911D01*
X207851Y192026D01*
X207880Y192141D01*
X207913Y192255D01*
X207949Y192367D01*
X207989Y192478D01*
X208032Y192588D01*
X208079Y192697D01*
X208129Y192804D01*
X208183Y192909D01*
X208241Y193012D01*
X208302Y193113D01*
X208366Y193213D01*
X208433Y193310D01*
X208503Y193405D01*
X208577Y193497D01*
X208653Y193588D01*
X208733Y193675D01*
X208815Y193760D01*
X208900Y193842D01*
X208987Y193922D01*
X209078Y193998D01*
X209170Y194072D01*
X209265Y194142D01*
X209362Y194209D01*
X209462Y194273D01*
X209563Y194334D01*
X209666Y194391D01*
X209771Y194445D01*
X209878Y194496D01*
X209987Y194543D01*
X210097Y194586D01*
X210208Y194626D01*
X210320Y194662D01*
X210434Y194695D01*
X210549Y194724D01*
X210664Y194749D01*
X210781Y194770D01*
X210898Y194787D01*
X211015Y194801D01*
X211133Y194810D01*
X211251Y194816D01*
X211369Y194818D01*
X214982Y194818D01*
X224395Y178562D02*
X228008Y178562D01*
X224395Y178562D02*
X224277Y178564D01*
X224159Y178570D01*
X224041Y178579D01*
X223924Y178593D01*
X223807Y178610D01*
X223690Y178631D01*
X223575Y178656D01*
X223460Y178685D01*
X223346Y178718D01*
X223234Y178754D01*
X223123Y178794D01*
X223013Y178837D01*
X222904Y178884D01*
X222797Y178934D01*
X222692Y178989D01*
X222589Y179046D01*
X222488Y179107D01*
X222388Y179171D01*
X222291Y179238D01*
X222196Y179308D01*
X222104Y179382D01*
X222013Y179458D01*
X221926Y179538D01*
X221841Y179620D01*
X221759Y179705D01*
X221679Y179792D01*
X221603Y179883D01*
X221529Y179975D01*
X221459Y180070D01*
X221392Y180167D01*
X221328Y180267D01*
X221267Y180368D01*
X221210Y180471D01*
X221155Y180576D01*
X221105Y180683D01*
X221058Y180792D01*
X221015Y180902D01*
X220975Y181013D01*
X220939Y181125D01*
X220906Y181239D01*
X220877Y181354D01*
X220852Y181469D01*
X220831Y181586D01*
X220814Y181703D01*
X220800Y181820D01*
X220791Y181938D01*
X220785Y182056D01*
X220783Y182174D01*
X220783Y191206D01*
X220785Y191324D01*
X220791Y191442D01*
X220800Y191560D01*
X220814Y191677D01*
X220831Y191794D01*
X220852Y191911D01*
X220877Y192026D01*
X220906Y192141D01*
X220939Y192255D01*
X220975Y192367D01*
X221015Y192478D01*
X221058Y192588D01*
X221105Y192697D01*
X221155Y192804D01*
X221209Y192909D01*
X221267Y193012D01*
X221328Y193113D01*
X221392Y193213D01*
X221459Y193310D01*
X221529Y193405D01*
X221603Y193497D01*
X221679Y193588D01*
X221759Y193675D01*
X221841Y193760D01*
X221926Y193842D01*
X222013Y193922D01*
X222104Y193998D01*
X222196Y194072D01*
X222291Y194142D01*
X222388Y194209D01*
X222488Y194273D01*
X222589Y194334D01*
X222692Y194391D01*
X222797Y194445D01*
X222904Y194496D01*
X223013Y194543D01*
X223123Y194586D01*
X223234Y194626D01*
X223346Y194662D01*
X223460Y194695D01*
X223575Y194724D01*
X223690Y194749D01*
X223807Y194770D01*
X223924Y194787D01*
X224041Y194801D01*
X224159Y194810D01*
X224277Y194816D01*
X224395Y194818D01*
X228008Y194818D01*
X297378Y55118D02*
X297378Y38862D01*
X292862Y55118D02*
X301893Y55118D01*
X308064Y55118D02*
X308064Y38862D01*
X308064Y55118D02*
X312579Y55118D01*
X312712Y55116D01*
X312844Y55110D01*
X312976Y55100D01*
X313108Y55087D01*
X313240Y55069D01*
X313370Y55048D01*
X313501Y55023D01*
X313630Y54994D01*
X313758Y54961D01*
X313886Y54925D01*
X314012Y54885D01*
X314137Y54841D01*
X314261Y54793D01*
X314383Y54742D01*
X314504Y54687D01*
X314623Y54629D01*
X314741Y54567D01*
X314856Y54502D01*
X314970Y54433D01*
X315081Y54362D01*
X315190Y54286D01*
X315297Y54208D01*
X315402Y54127D01*
X315504Y54042D01*
X315604Y53955D01*
X315701Y53865D01*
X315796Y53772D01*
X315887Y53676D01*
X315976Y53578D01*
X316062Y53477D01*
X316145Y53373D01*
X316225Y53267D01*
X316301Y53159D01*
X316375Y53049D01*
X316445Y52936D01*
X316512Y52822D01*
X316575Y52705D01*
X316635Y52587D01*
X316692Y52467D01*
X316745Y52345D01*
X316794Y52222D01*
X316840Y52098D01*
X316882Y51972D01*
X316920Y51845D01*
X316955Y51717D01*
X316986Y51588D01*
X317013Y51459D01*
X317036Y51328D01*
X317056Y51197D01*
X317071Y51065D01*
X317083Y50933D01*
X317091Y50801D01*
X317095Y50668D01*
X317095Y50536D01*
X317091Y50403D01*
X317083Y50271D01*
X317071Y50139D01*
X317056Y50007D01*
X317036Y49876D01*
X317013Y49745D01*
X316986Y49616D01*
X316955Y49487D01*
X316920Y49359D01*
X316882Y49232D01*
X316840Y49106D01*
X316794Y48982D01*
X316745Y48859D01*
X316692Y48737D01*
X316635Y48617D01*
X316575Y48499D01*
X316512Y48382D01*
X316445Y48268D01*
X316375Y48155D01*
X316301Y48045D01*
X316225Y47937D01*
X316145Y47831D01*
X316062Y47727D01*
X315976Y47626D01*
X315887Y47528D01*
X315796Y47432D01*
X315701Y47339D01*
X315604Y47249D01*
X315504Y47162D01*
X315402Y47077D01*
X315297Y46996D01*
X315190Y46918D01*
X315081Y46842D01*
X314970Y46771D01*
X314856Y46702D01*
X314741Y46637D01*
X314623Y46575D01*
X314504Y46517D01*
X314383Y46462D01*
X314261Y46411D01*
X314137Y46363D01*
X314012Y46319D01*
X313886Y46279D01*
X313758Y46243D01*
X313630Y46210D01*
X313501Y46181D01*
X313370Y46156D01*
X313240Y46135D01*
X313108Y46117D01*
X312976Y46104D01*
X312844Y46094D01*
X312712Y46088D01*
X312579Y46086D01*
X312579Y46087D02*
X308064Y46087D01*
X313482Y46087D02*
X317095Y38862D01*
X324993Y38862D02*
X324993Y55118D01*
X323187Y38862D02*
X326799Y38862D01*
X326799Y55118D02*
X323187Y55118D01*
X339825Y47893D02*
X342534Y47893D01*
X342534Y38862D01*
X337116Y38862D01*
X336998Y38864D01*
X336880Y38870D01*
X336762Y38879D01*
X336645Y38893D01*
X336528Y38910D01*
X336411Y38931D01*
X336296Y38956D01*
X336181Y38985D01*
X336067Y39018D01*
X335955Y39054D01*
X335844Y39094D01*
X335734Y39137D01*
X335625Y39184D01*
X335518Y39234D01*
X335413Y39289D01*
X335310Y39346D01*
X335209Y39407D01*
X335109Y39471D01*
X335012Y39538D01*
X334917Y39608D01*
X334825Y39682D01*
X334734Y39758D01*
X334647Y39838D01*
X334562Y39920D01*
X334480Y40005D01*
X334400Y40092D01*
X334324Y40183D01*
X334250Y40275D01*
X334180Y40370D01*
X334113Y40467D01*
X334049Y40567D01*
X333988Y40668D01*
X333931Y40771D01*
X333876Y40876D01*
X333826Y40983D01*
X333779Y41092D01*
X333736Y41202D01*
X333696Y41313D01*
X333660Y41425D01*
X333627Y41539D01*
X333598Y41654D01*
X333573Y41769D01*
X333552Y41886D01*
X333535Y42003D01*
X333521Y42120D01*
X333512Y42238D01*
X333506Y42356D01*
X333504Y42474D01*
X333503Y42474D02*
X333503Y51506D01*
X333504Y51506D02*
X333506Y51624D01*
X333512Y51742D01*
X333521Y51860D01*
X333535Y51977D01*
X333552Y52094D01*
X333573Y52211D01*
X333598Y52326D01*
X333627Y52441D01*
X333660Y52555D01*
X333696Y52667D01*
X333736Y52778D01*
X333779Y52888D01*
X333826Y52997D01*
X333876Y53104D01*
X333930Y53209D01*
X333988Y53312D01*
X334049Y53413D01*
X334113Y53513D01*
X334180Y53610D01*
X334250Y53705D01*
X334324Y53797D01*
X334400Y53888D01*
X334480Y53975D01*
X334562Y54060D01*
X334647Y54142D01*
X334734Y54222D01*
X334825Y54298D01*
X334917Y54372D01*
X335012Y54442D01*
X335109Y54509D01*
X335209Y54573D01*
X335310Y54634D01*
X335413Y54691D01*
X335518Y54745D01*
X335625Y54796D01*
X335734Y54843D01*
X335844Y54886D01*
X335955Y54926D01*
X336067Y54962D01*
X336181Y54995D01*
X336296Y55024D01*
X336411Y55049D01*
X336528Y55070D01*
X336645Y55087D01*
X336762Y55101D01*
X336880Y55110D01*
X336998Y55116D01*
X337116Y55118D01*
X342534Y55118D01*
X356498Y47893D02*
X359208Y47893D01*
X359208Y38862D01*
X353789Y38862D01*
X353671Y38864D01*
X353553Y38870D01*
X353435Y38879D01*
X353318Y38893D01*
X353201Y38910D01*
X353084Y38931D01*
X352969Y38956D01*
X352854Y38985D01*
X352740Y39018D01*
X352628Y39054D01*
X352517Y39094D01*
X352407Y39137D01*
X352298Y39184D01*
X352191Y39234D01*
X352086Y39289D01*
X351983Y39346D01*
X351882Y39407D01*
X351782Y39471D01*
X351685Y39538D01*
X351590Y39608D01*
X351498Y39682D01*
X351407Y39758D01*
X351320Y39838D01*
X351235Y39920D01*
X351153Y40005D01*
X351073Y40092D01*
X350997Y40183D01*
X350923Y40275D01*
X350853Y40370D01*
X350786Y40467D01*
X350722Y40567D01*
X350661Y40668D01*
X350604Y40771D01*
X350549Y40876D01*
X350499Y40983D01*
X350452Y41092D01*
X350409Y41202D01*
X350369Y41313D01*
X350333Y41425D01*
X350300Y41539D01*
X350271Y41654D01*
X350246Y41769D01*
X350225Y41886D01*
X350208Y42003D01*
X350194Y42120D01*
X350185Y42238D01*
X350179Y42356D01*
X350177Y42474D01*
X350177Y51506D01*
X350179Y51624D01*
X350185Y51742D01*
X350194Y51860D01*
X350208Y51977D01*
X350225Y52094D01*
X350246Y52211D01*
X350271Y52326D01*
X350300Y52441D01*
X350333Y52555D01*
X350369Y52667D01*
X350409Y52778D01*
X350452Y52888D01*
X350499Y52997D01*
X350549Y53104D01*
X350603Y53209D01*
X350661Y53312D01*
X350722Y53413D01*
X350786Y53513D01*
X350853Y53610D01*
X350923Y53705D01*
X350997Y53797D01*
X351073Y53888D01*
X351153Y53975D01*
X351235Y54060D01*
X351320Y54142D01*
X351407Y54222D01*
X351498Y54298D01*
X351590Y54372D01*
X351685Y54442D01*
X351782Y54509D01*
X351882Y54573D01*
X351983Y54634D01*
X352086Y54691D01*
X352191Y54745D01*
X352298Y54796D01*
X352407Y54843D01*
X352517Y54886D01*
X352628Y54926D01*
X352740Y54962D01*
X352854Y54995D01*
X352969Y55024D01*
X353084Y55049D01*
X353201Y55070D01*
X353318Y55087D01*
X353435Y55101D01*
X353553Y55110D01*
X353671Y55116D01*
X353789Y55118D01*
X359208Y55118D01*
X366880Y38862D02*
X374105Y38862D01*
X366880Y38862D02*
X366880Y55118D01*
X374105Y55118D01*
X372298Y47893D02*
X366880Y47893D01*
X380489Y55118D02*
X380489Y38862D01*
X380489Y55118D02*
X385004Y55118D01*
X385137Y55116D01*
X385269Y55110D01*
X385401Y55100D01*
X385533Y55087D01*
X385665Y55069D01*
X385795Y55048D01*
X385926Y55023D01*
X386055Y54994D01*
X386183Y54961D01*
X386311Y54925D01*
X386437Y54885D01*
X386562Y54841D01*
X386686Y54793D01*
X386808Y54742D01*
X386929Y54687D01*
X387048Y54629D01*
X387166Y54567D01*
X387281Y54502D01*
X387395Y54433D01*
X387506Y54362D01*
X387615Y54286D01*
X387722Y54208D01*
X387827Y54127D01*
X387929Y54042D01*
X388029Y53955D01*
X388126Y53865D01*
X388221Y53772D01*
X388312Y53676D01*
X388401Y53578D01*
X388487Y53477D01*
X388570Y53373D01*
X388650Y53267D01*
X388726Y53159D01*
X388800Y53049D01*
X388870Y52936D01*
X388937Y52822D01*
X389000Y52705D01*
X389060Y52587D01*
X389117Y52467D01*
X389170Y52345D01*
X389219Y52222D01*
X389265Y52098D01*
X389307Y51972D01*
X389345Y51845D01*
X389380Y51717D01*
X389411Y51588D01*
X389438Y51459D01*
X389461Y51328D01*
X389481Y51197D01*
X389496Y51065D01*
X389508Y50933D01*
X389516Y50801D01*
X389520Y50668D01*
X389520Y50536D01*
X389516Y50403D01*
X389508Y50271D01*
X389496Y50139D01*
X389481Y50007D01*
X389461Y49876D01*
X389438Y49745D01*
X389411Y49616D01*
X389380Y49487D01*
X389345Y49359D01*
X389307Y49232D01*
X389265Y49106D01*
X389219Y48982D01*
X389170Y48859D01*
X389117Y48737D01*
X389060Y48617D01*
X389000Y48499D01*
X388937Y48382D01*
X388870Y48268D01*
X388800Y48155D01*
X388726Y48045D01*
X388650Y47937D01*
X388570Y47831D01*
X388487Y47727D01*
X388401Y47626D01*
X388312Y47528D01*
X388221Y47432D01*
X388126Y47339D01*
X388029Y47249D01*
X387929Y47162D01*
X387827Y47077D01*
X387722Y46996D01*
X387615Y46918D01*
X387506Y46842D01*
X387395Y46771D01*
X387281Y46702D01*
X387166Y46637D01*
X387048Y46575D01*
X386929Y46517D01*
X386808Y46462D01*
X386686Y46411D01*
X386562Y46363D01*
X386437Y46319D01*
X386311Y46279D01*
X386183Y46243D01*
X386055Y46210D01*
X385926Y46181D01*
X385795Y46156D01*
X385665Y46135D01*
X385533Y46117D01*
X385401Y46104D01*
X385269Y46094D01*
X385137Y46088D01*
X385004Y46086D01*
X385004Y46087D02*
X380489Y46087D01*
X385907Y46087D02*
X389520Y38862D01*
X314593Y390793D02*
X311884Y390793D01*
X314593Y390793D02*
X314593Y381762D01*
X309174Y381762D01*
X309056Y381764D01*
X308938Y381770D01*
X308820Y381779D01*
X308703Y381793D01*
X308586Y381810D01*
X308469Y381831D01*
X308354Y381856D01*
X308239Y381885D01*
X308125Y381918D01*
X308013Y381954D01*
X307902Y381994D01*
X307792Y382037D01*
X307683Y382084D01*
X307576Y382134D01*
X307471Y382189D01*
X307368Y382246D01*
X307267Y382307D01*
X307167Y382371D01*
X307070Y382438D01*
X306975Y382508D01*
X306883Y382582D01*
X306792Y382658D01*
X306705Y382738D01*
X306620Y382820D01*
X306538Y382905D01*
X306458Y382992D01*
X306382Y383083D01*
X306308Y383175D01*
X306238Y383270D01*
X306171Y383367D01*
X306107Y383467D01*
X306046Y383568D01*
X305989Y383671D01*
X305934Y383776D01*
X305884Y383883D01*
X305837Y383992D01*
X305794Y384102D01*
X305754Y384213D01*
X305718Y384325D01*
X305685Y384439D01*
X305656Y384554D01*
X305631Y384669D01*
X305610Y384786D01*
X305593Y384903D01*
X305579Y385020D01*
X305570Y385138D01*
X305564Y385256D01*
X305562Y385374D01*
X305562Y394406D01*
X305564Y394524D01*
X305570Y394642D01*
X305579Y394760D01*
X305593Y394877D01*
X305610Y394994D01*
X305631Y395111D01*
X305656Y395226D01*
X305685Y395341D01*
X305718Y395455D01*
X305754Y395567D01*
X305794Y395678D01*
X305837Y395788D01*
X305884Y395897D01*
X305934Y396004D01*
X305988Y396109D01*
X306046Y396212D01*
X306107Y396313D01*
X306171Y396413D01*
X306238Y396510D01*
X306308Y396605D01*
X306382Y396697D01*
X306458Y396788D01*
X306538Y396875D01*
X306620Y396960D01*
X306705Y397042D01*
X306792Y397122D01*
X306883Y397198D01*
X306975Y397272D01*
X307070Y397342D01*
X307167Y397409D01*
X307267Y397473D01*
X307368Y397534D01*
X307471Y397591D01*
X307576Y397645D01*
X307683Y397696D01*
X307792Y397743D01*
X307902Y397786D01*
X308013Y397826D01*
X308125Y397862D01*
X308239Y397895D01*
X308354Y397924D01*
X308469Y397949D01*
X308586Y397970D01*
X308703Y397987D01*
X308820Y398001D01*
X308938Y398010D01*
X309056Y398016D01*
X309174Y398018D01*
X314593Y398018D01*
X322235Y398018D02*
X322235Y381762D01*
X331266Y381762D02*
X322235Y398018D01*
X331266Y398018D02*
X331266Y381762D01*
X338909Y381762D02*
X338909Y398018D01*
X343424Y398018D01*
X343555Y398016D01*
X343687Y398010D01*
X343818Y398001D01*
X343948Y397987D01*
X344079Y397970D01*
X344208Y397949D01*
X344337Y397925D01*
X344465Y397896D01*
X344593Y397864D01*
X344719Y397828D01*
X344844Y397789D01*
X344969Y397746D01*
X345091Y397699D01*
X345213Y397649D01*
X345333Y397595D01*
X345451Y397538D01*
X345567Y397477D01*
X345682Y397413D01*
X345795Y397346D01*
X345906Y397275D01*
X346014Y397201D01*
X346121Y397124D01*
X346225Y397044D01*
X346327Y396961D01*
X346426Y396876D01*
X346523Y396787D01*
X346617Y396695D01*
X346709Y396601D01*
X346798Y396504D01*
X346883Y396405D01*
X346966Y396303D01*
X347046Y396199D01*
X347123Y396092D01*
X347197Y395984D01*
X347268Y395873D01*
X347335Y395760D01*
X347399Y395645D01*
X347460Y395529D01*
X347517Y395411D01*
X347571Y395291D01*
X347621Y395169D01*
X347668Y395047D01*
X347711Y394922D01*
X347750Y394797D01*
X347786Y394671D01*
X347818Y394543D01*
X347847Y394415D01*
X347871Y394286D01*
X347892Y394157D01*
X347909Y394026D01*
X347923Y393896D01*
X347932Y393765D01*
X347938Y393633D01*
X347940Y393502D01*
X347940Y386278D01*
X347938Y386147D01*
X347932Y386015D01*
X347923Y385884D01*
X347909Y385754D01*
X347892Y385623D01*
X347871Y385494D01*
X347847Y385365D01*
X347818Y385237D01*
X347786Y385109D01*
X347750Y384983D01*
X347711Y384858D01*
X347668Y384733D01*
X347621Y384611D01*
X347571Y384489D01*
X347517Y384369D01*
X347460Y384251D01*
X347399Y384135D01*
X347335Y384020D01*
X347268Y383907D01*
X347197Y383796D01*
X347123Y383688D01*
X347046Y383581D01*
X346966Y383477D01*
X346883Y383375D01*
X346798Y383276D01*
X346709Y383179D01*
X346617Y383085D01*
X346523Y382993D01*
X346426Y382904D01*
X346327Y382819D01*
X346225Y382736D01*
X346121Y382656D01*
X346014Y382579D01*
X345906Y382505D01*
X345795Y382434D01*
X345682Y382367D01*
X345567Y382303D01*
X345451Y382242D01*
X345333Y382185D01*
X345213Y382131D01*
X345091Y382081D01*
X344969Y382034D01*
X344844Y381991D01*
X344719Y381952D01*
X344593Y381916D01*
X344465Y381884D01*
X344337Y381855D01*
X344208Y381831D01*
X344078Y381810D01*
X343948Y381793D01*
X343818Y381779D01*
X343687Y381770D01*
X343555Y381764D01*
X343424Y381762D01*
X338909Y381762D01*
X13462Y381762D02*
X13462Y398018D01*
X18881Y388987D01*
X24299Y398018D01*
X24299Y381762D01*
X31421Y385374D02*
X31421Y388987D01*
X31423Y389106D01*
X31429Y389226D01*
X31439Y389345D01*
X31453Y389463D01*
X31470Y389582D01*
X31492Y389699D01*
X31517Y389816D01*
X31547Y389931D01*
X31580Y390046D01*
X31617Y390160D01*
X31657Y390272D01*
X31702Y390383D01*
X31750Y390492D01*
X31801Y390600D01*
X31856Y390706D01*
X31915Y390810D01*
X31977Y390912D01*
X32042Y391012D01*
X32111Y391110D01*
X32183Y391206D01*
X32258Y391299D01*
X32335Y391389D01*
X32416Y391477D01*
X32500Y391562D01*
X32587Y391644D01*
X32676Y391724D01*
X32768Y391800D01*
X32862Y391874D01*
X32959Y391944D01*
X33057Y392011D01*
X33158Y392075D01*
X33262Y392135D01*
X33367Y392192D01*
X33474Y392245D01*
X33582Y392295D01*
X33692Y392341D01*
X33804Y392383D01*
X33917Y392422D01*
X34031Y392457D01*
X34146Y392488D01*
X34263Y392516D01*
X34380Y392539D01*
X34497Y392559D01*
X34616Y392575D01*
X34735Y392587D01*
X34854Y392595D01*
X34973Y392599D01*
X35093Y392599D01*
X35212Y392595D01*
X35331Y392587D01*
X35450Y392575D01*
X35569Y392559D01*
X35686Y392539D01*
X35803Y392516D01*
X35920Y392488D01*
X36035Y392457D01*
X36149Y392422D01*
X36262Y392383D01*
X36374Y392341D01*
X36484Y392295D01*
X36592Y392245D01*
X36699Y392192D01*
X36804Y392135D01*
X36908Y392075D01*
X37009Y392011D01*
X37107Y391944D01*
X37204Y391874D01*
X37298Y391800D01*
X37390Y391724D01*
X37479Y391644D01*
X37566Y391562D01*
X37650Y391477D01*
X37731Y391389D01*
X37808Y391299D01*
X37883Y391206D01*
X37955Y391110D01*
X38024Y391012D01*
X38089Y390912D01*
X38151Y390810D01*
X38210Y390706D01*
X38265Y390600D01*
X38316Y390492D01*
X38364Y390383D01*
X38409Y390272D01*
X38449Y390160D01*
X38486Y390046D01*
X38519Y389931D01*
X38549Y389816D01*
X38574Y389699D01*
X38596Y389582D01*
X38613Y389463D01*
X38627Y389345D01*
X38637Y389226D01*
X38643Y389106D01*
X38645Y388987D01*
X38645Y385374D01*
X38643Y385255D01*
X38637Y385135D01*
X38627Y385016D01*
X38613Y384898D01*
X38596Y384779D01*
X38574Y384662D01*
X38549Y384545D01*
X38519Y384430D01*
X38486Y384315D01*
X38449Y384201D01*
X38409Y384089D01*
X38364Y383978D01*
X38316Y383869D01*
X38265Y383761D01*
X38210Y383655D01*
X38151Y383551D01*
X38089Y383449D01*
X38024Y383349D01*
X37955Y383251D01*
X37883Y383155D01*
X37808Y383062D01*
X37731Y382972D01*
X37650Y382884D01*
X37566Y382799D01*
X37479Y382717D01*
X37390Y382637D01*
X37298Y382561D01*
X37204Y382487D01*
X37107Y382417D01*
X37009Y382350D01*
X36908Y382286D01*
X36804Y382226D01*
X36699Y382169D01*
X36592Y382116D01*
X36484Y382066D01*
X36374Y382020D01*
X36262Y381978D01*
X36149Y381939D01*
X36035Y381904D01*
X35920Y381873D01*
X35803Y381845D01*
X35686Y381822D01*
X35569Y381802D01*
X35450Y381786D01*
X35331Y381774D01*
X35212Y381766D01*
X35093Y381762D01*
X34973Y381762D01*
X34854Y381766D01*
X34735Y381774D01*
X34616Y381786D01*
X34497Y381802D01*
X34380Y381822D01*
X34263Y381845D01*
X34146Y381873D01*
X34031Y381904D01*
X33917Y381939D01*
X33804Y381978D01*
X33692Y382020D01*
X33582Y382066D01*
X33474Y382116D01*
X33367Y382169D01*
X33262Y382226D01*
X33158Y382286D01*
X33057Y382350D01*
X32959Y382417D01*
X32862Y382487D01*
X32768Y382561D01*
X32676Y382637D01*
X32587Y382717D01*
X32500Y382799D01*
X32416Y382884D01*
X32335Y382972D01*
X32258Y383062D01*
X32183Y383155D01*
X32111Y383251D01*
X32042Y383349D01*
X31977Y383449D01*
X31915Y383551D01*
X31856Y383655D01*
X31801Y383761D01*
X31750Y383869D01*
X31702Y383978D01*
X31657Y384089D01*
X31617Y384201D01*
X31580Y384315D01*
X31547Y384430D01*
X31517Y384545D01*
X31492Y384662D01*
X31470Y384779D01*
X31453Y384898D01*
X31439Y385016D01*
X31429Y385135D01*
X31423Y385255D01*
X31421Y385374D01*
X44968Y385374D02*
X44968Y388987D01*
X44970Y389106D01*
X44976Y389226D01*
X44986Y389345D01*
X45000Y389463D01*
X45017Y389582D01*
X45039Y389699D01*
X45064Y389816D01*
X45094Y389931D01*
X45127Y390046D01*
X45164Y390160D01*
X45204Y390272D01*
X45249Y390383D01*
X45297Y390492D01*
X45348Y390600D01*
X45403Y390706D01*
X45462Y390810D01*
X45524Y390912D01*
X45589Y391012D01*
X45658Y391110D01*
X45730Y391206D01*
X45805Y391299D01*
X45882Y391389D01*
X45963Y391477D01*
X46047Y391562D01*
X46134Y391644D01*
X46223Y391724D01*
X46315Y391800D01*
X46409Y391874D01*
X46506Y391944D01*
X46604Y392011D01*
X46705Y392075D01*
X46809Y392135D01*
X46914Y392192D01*
X47021Y392245D01*
X47129Y392295D01*
X47239Y392341D01*
X47351Y392383D01*
X47464Y392422D01*
X47578Y392457D01*
X47693Y392488D01*
X47810Y392516D01*
X47927Y392539D01*
X48044Y392559D01*
X48163Y392575D01*
X48282Y392587D01*
X48401Y392595D01*
X48520Y392599D01*
X48640Y392599D01*
X48759Y392595D01*
X48878Y392587D01*
X48997Y392575D01*
X49116Y392559D01*
X49233Y392539D01*
X49350Y392516D01*
X49467Y392488D01*
X49582Y392457D01*
X49696Y392422D01*
X49809Y392383D01*
X49921Y392341D01*
X50031Y392295D01*
X50139Y392245D01*
X50246Y392192D01*
X50351Y392135D01*
X50455Y392075D01*
X50556Y392011D01*
X50654Y391944D01*
X50751Y391874D01*
X50845Y391800D01*
X50937Y391724D01*
X51026Y391644D01*
X51113Y391562D01*
X51197Y391477D01*
X51278Y391389D01*
X51355Y391299D01*
X51430Y391206D01*
X51502Y391110D01*
X51571Y391012D01*
X51636Y390912D01*
X51698Y390810D01*
X51757Y390706D01*
X51812Y390600D01*
X51863Y390492D01*
X51911Y390383D01*
X51956Y390272D01*
X51996Y390160D01*
X52033Y390046D01*
X52066Y389931D01*
X52096Y389816D01*
X52121Y389699D01*
X52143Y389582D01*
X52160Y389463D01*
X52174Y389345D01*
X52184Y389226D01*
X52190Y389106D01*
X52192Y388987D01*
X52192Y385374D01*
X52190Y385255D01*
X52184Y385135D01*
X52174Y385016D01*
X52160Y384898D01*
X52143Y384779D01*
X52121Y384662D01*
X52096Y384545D01*
X52066Y384430D01*
X52033Y384315D01*
X51996Y384201D01*
X51956Y384089D01*
X51911Y383978D01*
X51863Y383869D01*
X51812Y383761D01*
X51757Y383655D01*
X51698Y383551D01*
X51636Y383449D01*
X51571Y383349D01*
X51502Y383251D01*
X51430Y383155D01*
X51355Y383062D01*
X51278Y382972D01*
X51197Y382884D01*
X51113Y382799D01*
X51026Y382717D01*
X50937Y382637D01*
X50845Y382561D01*
X50751Y382487D01*
X50654Y382417D01*
X50556Y382350D01*
X50455Y382286D01*
X50351Y382226D01*
X50246Y382169D01*
X50139Y382116D01*
X50031Y382066D01*
X49921Y382020D01*
X49809Y381978D01*
X49696Y381939D01*
X49582Y381904D01*
X49467Y381873D01*
X49350Y381845D01*
X49233Y381822D01*
X49116Y381802D01*
X48997Y381786D01*
X48878Y381774D01*
X48759Y381766D01*
X48640Y381762D01*
X48520Y381762D01*
X48401Y381766D01*
X48282Y381774D01*
X48163Y381786D01*
X48044Y381802D01*
X47927Y381822D01*
X47810Y381845D01*
X47693Y381873D01*
X47578Y381904D01*
X47464Y381939D01*
X47351Y381978D01*
X47239Y382020D01*
X47129Y382066D01*
X47021Y382116D01*
X46914Y382169D01*
X46809Y382226D01*
X46705Y382286D01*
X46604Y382350D01*
X46506Y382417D01*
X46409Y382487D01*
X46315Y382561D01*
X46223Y382637D01*
X46134Y382717D01*
X46047Y382799D01*
X45963Y382884D01*
X45882Y382972D01*
X45805Y383062D01*
X45730Y383155D01*
X45658Y383251D01*
X45589Y383349D01*
X45524Y383449D01*
X45462Y383551D01*
X45403Y383655D01*
X45348Y383761D01*
X45297Y383869D01*
X45249Y383978D01*
X45204Y384089D01*
X45164Y384201D01*
X45127Y384315D01*
X45094Y384430D01*
X45064Y384545D01*
X45039Y384662D01*
X45017Y384779D01*
X45000Y384898D01*
X44986Y385016D01*
X44976Y385135D01*
X44970Y385255D01*
X44968Y385374D01*
X61151Y381762D02*
X65666Y381762D01*
X61151Y381762D02*
X61050Y381764D01*
X60949Y381770D01*
X60848Y381779D01*
X60747Y381792D01*
X60647Y381809D01*
X60548Y381830D01*
X60450Y381854D01*
X60353Y381882D01*
X60256Y381914D01*
X60161Y381949D01*
X60068Y381988D01*
X59976Y382030D01*
X59885Y382076D01*
X59797Y382125D01*
X59710Y382177D01*
X59625Y382233D01*
X59542Y382291D01*
X59462Y382353D01*
X59384Y382418D01*
X59308Y382485D01*
X59235Y382555D01*
X59165Y382628D01*
X59098Y382704D01*
X59033Y382782D01*
X58971Y382862D01*
X58913Y382945D01*
X58857Y383030D01*
X58805Y383117D01*
X58756Y383205D01*
X58710Y383296D01*
X58668Y383388D01*
X58629Y383481D01*
X58594Y383576D01*
X58562Y383673D01*
X58534Y383770D01*
X58510Y383868D01*
X58489Y383967D01*
X58472Y384067D01*
X58459Y384168D01*
X58450Y384269D01*
X58444Y384370D01*
X58442Y384471D01*
X58441Y384471D02*
X58441Y389890D01*
X58442Y389890D02*
X58444Y389991D01*
X58450Y390092D01*
X58459Y390193D01*
X58472Y390294D01*
X58489Y390394D01*
X58510Y390493D01*
X58534Y390591D01*
X58562Y390688D01*
X58594Y390785D01*
X58629Y390880D01*
X58668Y390973D01*
X58710Y391065D01*
X58756Y391156D01*
X58805Y391245D01*
X58857Y391331D01*
X58913Y391416D01*
X58971Y391499D01*
X59033Y391579D01*
X59098Y391657D01*
X59165Y391733D01*
X59235Y391806D01*
X59308Y391876D01*
X59384Y391943D01*
X59462Y392008D01*
X59542Y392070D01*
X59625Y392128D01*
X59710Y392184D01*
X59797Y392236D01*
X59885Y392285D01*
X59976Y392331D01*
X60068Y392373D01*
X60161Y392412D01*
X60256Y392447D01*
X60353Y392479D01*
X60450Y392507D01*
X60548Y392531D01*
X60647Y392552D01*
X60747Y392569D01*
X60848Y392582D01*
X60949Y392591D01*
X61050Y392597D01*
X61151Y392599D01*
X65666Y392599D01*
X65666Y379053D01*
X65664Y378949D01*
X65658Y378846D01*
X65648Y378742D01*
X65634Y378639D01*
X65616Y378537D01*
X65595Y378436D01*
X65569Y378335D01*
X65540Y378236D01*
X65507Y378137D01*
X65470Y378040D01*
X65429Y377945D01*
X65385Y377851D01*
X65337Y377759D01*
X65286Y377669D01*
X65231Y377580D01*
X65173Y377494D01*
X65111Y377411D01*
X65047Y377329D01*
X64979Y377251D01*
X64909Y377175D01*
X64836Y377101D01*
X64759Y377031D01*
X64681Y376963D01*
X64599Y376899D01*
X64516Y376837D01*
X64430Y376779D01*
X64341Y376724D01*
X64251Y376673D01*
X64159Y376625D01*
X64065Y376581D01*
X63970Y376540D01*
X63873Y376503D01*
X63774Y376470D01*
X63675Y376441D01*
X63574Y376415D01*
X63473Y376394D01*
X63371Y376376D01*
X63268Y376362D01*
X63164Y376352D01*
X63061Y376346D01*
X62957Y376344D01*
X62957Y376343D02*
X59344Y376343D01*
X81579Y381762D02*
X81579Y398018D01*
X86095Y398018D01*
X86226Y398016D01*
X86358Y398010D01*
X86489Y398001D01*
X86619Y397987D01*
X86750Y397970D01*
X86879Y397949D01*
X87008Y397925D01*
X87136Y397896D01*
X87264Y397864D01*
X87390Y397828D01*
X87515Y397789D01*
X87640Y397746D01*
X87762Y397699D01*
X87884Y397649D01*
X88004Y397595D01*
X88122Y397538D01*
X88238Y397477D01*
X88353Y397413D01*
X88466Y397346D01*
X88577Y397275D01*
X88685Y397201D01*
X88792Y397124D01*
X88896Y397044D01*
X88998Y396961D01*
X89097Y396876D01*
X89194Y396787D01*
X89288Y396695D01*
X89380Y396601D01*
X89469Y396504D01*
X89554Y396405D01*
X89637Y396303D01*
X89717Y396199D01*
X89794Y396092D01*
X89868Y395984D01*
X89939Y395873D01*
X90006Y395760D01*
X90070Y395645D01*
X90131Y395529D01*
X90188Y395411D01*
X90242Y395291D01*
X90292Y395169D01*
X90339Y395047D01*
X90382Y394922D01*
X90421Y394797D01*
X90457Y394671D01*
X90489Y394543D01*
X90518Y394415D01*
X90542Y394286D01*
X90563Y394157D01*
X90580Y394026D01*
X90594Y393896D01*
X90603Y393765D01*
X90609Y393633D01*
X90611Y393502D01*
X90610Y393502D02*
X90610Y386278D01*
X90611Y386278D02*
X90609Y386147D01*
X90603Y386015D01*
X90594Y385884D01*
X90580Y385754D01*
X90563Y385623D01*
X90542Y385494D01*
X90518Y385365D01*
X90489Y385237D01*
X90457Y385109D01*
X90421Y384983D01*
X90382Y384858D01*
X90339Y384733D01*
X90292Y384611D01*
X90242Y384489D01*
X90188Y384369D01*
X90131Y384251D01*
X90070Y384135D01*
X90006Y384020D01*
X89939Y383907D01*
X89868Y383796D01*
X89794Y383688D01*
X89717Y383581D01*
X89637Y383477D01*
X89554Y383375D01*
X89469Y383276D01*
X89380Y383179D01*
X89288Y383085D01*
X89194Y382993D01*
X89097Y382904D01*
X88998Y382819D01*
X88896Y382736D01*
X88792Y382656D01*
X88685Y382579D01*
X88577Y382505D01*
X88466Y382434D01*
X88353Y382367D01*
X88238Y382303D01*
X88122Y382242D01*
X88004Y382185D01*
X87884Y382131D01*
X87762Y382081D01*
X87640Y382034D01*
X87515Y381991D01*
X87390Y381952D01*
X87264Y381916D01*
X87136Y381884D01*
X87008Y381855D01*
X86879Y381831D01*
X86749Y381810D01*
X86619Y381793D01*
X86489Y381779D01*
X86358Y381770D01*
X86226Y381764D01*
X86095Y381762D01*
X81579Y381762D01*
X98283Y381762D02*
X98283Y398018D01*
X105507Y398018D01*
X105507Y390793D02*
X98283Y390793D01*
X110376Y381762D02*
X115794Y398018D01*
X121213Y381762D01*
X119858Y385826D02*
X111730Y385826D01*
X127570Y381762D02*
X127570Y398018D01*
X132989Y388987D01*
X138407Y398018D01*
X138407Y381762D01*
X154664Y381762D02*
X154664Y398018D01*
X160083Y388987D01*
X165501Y398018D01*
X165501Y381762D01*
X174151Y381762D02*
X174151Y398018D01*
X172345Y381762D02*
X175957Y381762D01*
X175957Y398018D02*
X172345Y398018D01*
X182661Y398018D02*
X182661Y381762D01*
X182661Y398018D02*
X187177Y398018D01*
X187308Y398016D01*
X187440Y398010D01*
X187571Y398001D01*
X187701Y397987D01*
X187832Y397970D01*
X187961Y397949D01*
X188090Y397925D01*
X188218Y397896D01*
X188346Y397864D01*
X188472Y397828D01*
X188597Y397789D01*
X188722Y397746D01*
X188844Y397699D01*
X188966Y397649D01*
X189086Y397595D01*
X189204Y397538D01*
X189320Y397477D01*
X189435Y397413D01*
X189548Y397346D01*
X189659Y397275D01*
X189767Y397201D01*
X189874Y397124D01*
X189978Y397044D01*
X190080Y396961D01*
X190179Y396876D01*
X190276Y396787D01*
X190370Y396695D01*
X190462Y396601D01*
X190551Y396504D01*
X190636Y396405D01*
X190719Y396303D01*
X190799Y396199D01*
X190876Y396092D01*
X190950Y395984D01*
X191021Y395873D01*
X191088Y395760D01*
X191152Y395645D01*
X191213Y395529D01*
X191270Y395411D01*
X191324Y395291D01*
X191374Y395169D01*
X191421Y395047D01*
X191464Y394922D01*
X191503Y394797D01*
X191539Y394671D01*
X191571Y394543D01*
X191600Y394415D01*
X191624Y394286D01*
X191645Y394157D01*
X191662Y394026D01*
X191676Y393896D01*
X191685Y393765D01*
X191691Y393633D01*
X191693Y393502D01*
X191692Y393502D02*
X191692Y386278D01*
X191693Y386278D02*
X191691Y386147D01*
X191685Y386015D01*
X191676Y385884D01*
X191662Y385754D01*
X191645Y385623D01*
X191624Y385494D01*
X191600Y385365D01*
X191571Y385237D01*
X191539Y385109D01*
X191503Y384983D01*
X191464Y384858D01*
X191421Y384733D01*
X191374Y384611D01*
X191324Y384489D01*
X191270Y384369D01*
X191213Y384251D01*
X191152Y384135D01*
X191088Y384020D01*
X191021Y383907D01*
X190950Y383796D01*
X190876Y383688D01*
X190799Y383581D01*
X190719Y383477D01*
X190636Y383375D01*
X190551Y383276D01*
X190462Y383179D01*
X190370Y383085D01*
X190276Y382993D01*
X190179Y382904D01*
X190080Y382819D01*
X189978Y382736D01*
X189874Y382656D01*
X189767Y382579D01*
X189659Y382505D01*
X189548Y382434D01*
X189435Y382367D01*
X189320Y382303D01*
X189204Y382242D01*
X189086Y382185D01*
X188966Y382131D01*
X188844Y382081D01*
X188722Y382034D01*
X188597Y381991D01*
X188472Y381952D01*
X188346Y381916D01*
X188218Y381884D01*
X188090Y381855D01*
X187961Y381831D01*
X187831Y381810D01*
X187701Y381793D01*
X187571Y381779D01*
X187440Y381770D01*
X187308Y381764D01*
X187177Y381762D01*
X182661Y381762D01*
X200203Y381762D02*
X200203Y398018D01*
X198397Y381762D02*
X202009Y381762D01*
X202009Y398018D02*
X198397Y398018D01*
X221427Y381762D02*
X221545Y381764D01*
X221663Y381770D01*
X221781Y381779D01*
X221898Y381793D01*
X222015Y381810D01*
X222132Y381831D01*
X222247Y381856D01*
X222362Y381885D01*
X222476Y381918D01*
X222588Y381954D01*
X222699Y381994D01*
X222809Y382037D01*
X222918Y382084D01*
X223025Y382134D01*
X223130Y382189D01*
X223233Y382246D01*
X223334Y382307D01*
X223434Y382371D01*
X223531Y382438D01*
X223626Y382508D01*
X223718Y382582D01*
X223809Y382658D01*
X223896Y382738D01*
X223981Y382820D01*
X224063Y382905D01*
X224143Y382992D01*
X224219Y383083D01*
X224293Y383175D01*
X224363Y383270D01*
X224430Y383367D01*
X224494Y383467D01*
X224555Y383568D01*
X224612Y383671D01*
X224667Y383776D01*
X224717Y383883D01*
X224764Y383992D01*
X224807Y384102D01*
X224847Y384213D01*
X224883Y384325D01*
X224916Y384439D01*
X224945Y384554D01*
X224970Y384669D01*
X224991Y384786D01*
X225008Y384903D01*
X225022Y385020D01*
X225031Y385138D01*
X225037Y385256D01*
X225039Y385374D01*
X221427Y381762D02*
X221244Y381764D01*
X221062Y381771D01*
X220880Y381782D01*
X220698Y381797D01*
X220516Y381817D01*
X220335Y381840D01*
X220155Y381869D01*
X219975Y381901D01*
X219796Y381938D01*
X219619Y381979D01*
X219442Y382025D01*
X219266Y382074D01*
X219092Y382128D01*
X218918Y382186D01*
X218747Y382248D01*
X218577Y382314D01*
X218408Y382385D01*
X218241Y382459D01*
X218076Y382537D01*
X217913Y382619D01*
X217752Y382705D01*
X217593Y382795D01*
X217436Y382889D01*
X217282Y382986D01*
X217130Y383087D01*
X216980Y383192D01*
X216833Y383300D01*
X216689Y383411D01*
X216547Y383526D01*
X216408Y383645D01*
X216272Y383767D01*
X216139Y383892D01*
X216009Y384020D01*
X216460Y394406D02*
X216462Y394524D01*
X216468Y394642D01*
X216477Y394760D01*
X216491Y394877D01*
X216508Y394994D01*
X216529Y395111D01*
X216554Y395226D01*
X216583Y395341D01*
X216616Y395455D01*
X216652Y395567D01*
X216692Y395678D01*
X216735Y395788D01*
X216782Y395897D01*
X216832Y396004D01*
X216887Y396109D01*
X216944Y396212D01*
X217005Y396313D01*
X217069Y396413D01*
X217136Y396510D01*
X217206Y396605D01*
X217280Y396697D01*
X217356Y396788D01*
X217436Y396875D01*
X217518Y396960D01*
X217603Y397042D01*
X217690Y397122D01*
X217781Y397198D01*
X217873Y397272D01*
X217968Y397342D01*
X218065Y397409D01*
X218165Y397473D01*
X218266Y397534D01*
X218369Y397592D01*
X218474Y397646D01*
X218581Y397696D01*
X218690Y397743D01*
X218800Y397787D01*
X218911Y397826D01*
X219024Y397862D01*
X219137Y397895D01*
X219252Y397924D01*
X219367Y397949D01*
X219484Y397970D01*
X219601Y397987D01*
X219718Y398001D01*
X219836Y398010D01*
X219954Y398016D01*
X220072Y398018D01*
X220233Y398016D01*
X220395Y398010D01*
X220556Y398001D01*
X220717Y397987D01*
X220877Y397970D01*
X221037Y397949D01*
X221197Y397924D01*
X221356Y397895D01*
X221514Y397863D01*
X221671Y397827D01*
X221827Y397787D01*
X221983Y397743D01*
X222137Y397695D01*
X222290Y397644D01*
X222442Y397590D01*
X222593Y397531D01*
X222742Y397470D01*
X222889Y397404D01*
X223035Y397335D01*
X223180Y397263D01*
X223322Y397187D01*
X223463Y397108D01*
X223602Y397026D01*
X223738Y396940D01*
X223873Y396851D01*
X224006Y396759D01*
X224136Y396663D01*
X218265Y391245D02*
X218164Y391307D01*
X218064Y391372D01*
X217967Y391441D01*
X217872Y391513D01*
X217779Y391587D01*
X217689Y391665D01*
X217601Y391746D01*
X217516Y391829D01*
X217434Y391915D01*
X217355Y392004D01*
X217278Y392095D01*
X217205Y392189D01*
X217134Y392285D01*
X217067Y392383D01*
X217003Y392483D01*
X216942Y392586D01*
X216885Y392690D01*
X216831Y392796D01*
X216781Y392904D01*
X216734Y393013D01*
X216690Y393124D01*
X216650Y393236D01*
X216614Y393350D01*
X216582Y393464D01*
X216553Y393580D01*
X216528Y393696D01*
X216507Y393813D01*
X216490Y393931D01*
X216476Y394049D01*
X216467Y394168D01*
X216461Y394287D01*
X216459Y394406D01*
X223233Y388535D02*
X223334Y388473D01*
X223434Y388408D01*
X223531Y388339D01*
X223626Y388267D01*
X223719Y388193D01*
X223809Y388115D01*
X223897Y388034D01*
X223982Y387951D01*
X224064Y387865D01*
X224143Y387776D01*
X224220Y387685D01*
X224293Y387591D01*
X224364Y387495D01*
X224431Y387397D01*
X224495Y387297D01*
X224556Y387194D01*
X224613Y387090D01*
X224667Y386984D01*
X224717Y386876D01*
X224764Y386767D01*
X224808Y386656D01*
X224848Y386544D01*
X224884Y386430D01*
X224916Y386316D01*
X224945Y386200D01*
X224970Y386084D01*
X224991Y385967D01*
X225008Y385849D01*
X225022Y385731D01*
X225031Y385612D01*
X225037Y385493D01*
X225039Y385374D01*
X223233Y388535D02*
X218266Y391245D01*
X230458Y376343D02*
X232264Y376343D01*
X237683Y392599D01*
X230458Y392599D02*
X234071Y381762D01*
X244005Y381762D02*
X244005Y392599D01*
X248521Y392599D01*
X248625Y392597D01*
X248728Y392591D01*
X248832Y392581D01*
X248935Y392567D01*
X249037Y392549D01*
X249138Y392528D01*
X249239Y392502D01*
X249338Y392473D01*
X249437Y392440D01*
X249534Y392403D01*
X249629Y392362D01*
X249723Y392318D01*
X249815Y392270D01*
X249905Y392219D01*
X249994Y392164D01*
X250080Y392106D01*
X250163Y392044D01*
X250245Y391980D01*
X250323Y391912D01*
X250399Y391842D01*
X250473Y391769D01*
X250543Y391692D01*
X250611Y391614D01*
X250675Y391532D01*
X250737Y391449D01*
X250795Y391363D01*
X250850Y391274D01*
X250901Y391184D01*
X250949Y391092D01*
X250993Y390998D01*
X251034Y390903D01*
X251071Y390806D01*
X251104Y390707D01*
X251133Y390608D01*
X251159Y390507D01*
X251180Y390406D01*
X251198Y390304D01*
X251212Y390201D01*
X251222Y390097D01*
X251228Y389994D01*
X251230Y389890D01*
X251230Y381762D01*
X260800Y381762D02*
X264413Y381762D01*
X260800Y381762D02*
X260699Y381764D01*
X260598Y381770D01*
X260497Y381779D01*
X260396Y381792D01*
X260296Y381809D01*
X260197Y381830D01*
X260099Y381854D01*
X260002Y381882D01*
X259905Y381914D01*
X259810Y381949D01*
X259717Y381988D01*
X259625Y382030D01*
X259534Y382076D01*
X259446Y382125D01*
X259359Y382177D01*
X259274Y382233D01*
X259191Y382291D01*
X259111Y382353D01*
X259033Y382418D01*
X258957Y382485D01*
X258884Y382555D01*
X258814Y382628D01*
X258747Y382704D01*
X258682Y382782D01*
X258620Y382862D01*
X258562Y382945D01*
X258506Y383030D01*
X258454Y383117D01*
X258405Y383205D01*
X258359Y383296D01*
X258317Y383388D01*
X258278Y383481D01*
X258243Y383576D01*
X258211Y383673D01*
X258183Y383770D01*
X258159Y383868D01*
X258138Y383967D01*
X258121Y384067D01*
X258108Y384168D01*
X258099Y384269D01*
X258093Y384370D01*
X258091Y384471D01*
X258091Y389890D01*
X258093Y389991D01*
X258099Y390092D01*
X258108Y390193D01*
X258121Y390294D01*
X258138Y390394D01*
X258159Y390493D01*
X258183Y390591D01*
X258211Y390688D01*
X258243Y390785D01*
X258278Y390880D01*
X258317Y390973D01*
X258359Y391065D01*
X258405Y391156D01*
X258454Y391245D01*
X258506Y391331D01*
X258562Y391416D01*
X258620Y391499D01*
X258682Y391579D01*
X258747Y391657D01*
X258814Y391733D01*
X258884Y391806D01*
X258957Y391876D01*
X259033Y391943D01*
X259111Y392008D01*
X259191Y392070D01*
X259274Y392128D01*
X259359Y392184D01*
X259446Y392236D01*
X259534Y392285D01*
X259625Y392331D01*
X259717Y392373D01*
X259810Y392412D01*
X259905Y392447D01*
X260002Y392479D01*
X260099Y392507D01*
X260197Y392531D01*
X260296Y392552D01*
X260396Y392569D01*
X260497Y392582D01*
X260598Y392591D01*
X260699Y392597D01*
X260800Y392599D01*
X264413Y392599D01*
X23396Y357209D02*
X20687Y357209D01*
X20687Y357208D02*
X20583Y357206D01*
X20480Y357200D01*
X20376Y357190D01*
X20273Y357176D01*
X20171Y357158D01*
X20070Y357137D01*
X19969Y357111D01*
X19870Y357082D01*
X19771Y357049D01*
X19674Y357012D01*
X19579Y356971D01*
X19485Y356927D01*
X19393Y356879D01*
X19303Y356828D01*
X19214Y356773D01*
X19128Y356715D01*
X19045Y356653D01*
X18963Y356589D01*
X18885Y356521D01*
X18809Y356451D01*
X18735Y356378D01*
X18665Y356301D01*
X18597Y356223D01*
X18533Y356141D01*
X18471Y356058D01*
X18413Y355972D01*
X18358Y355883D01*
X18307Y355793D01*
X18259Y355701D01*
X18215Y355607D01*
X18174Y355512D01*
X18137Y355415D01*
X18104Y355316D01*
X18075Y355217D01*
X18049Y355116D01*
X18028Y355015D01*
X18010Y354913D01*
X17996Y354810D01*
X17986Y354706D01*
X17980Y354603D01*
X17978Y354499D01*
X17978Y349081D01*
X17980Y348978D01*
X17986Y348876D01*
X17995Y348774D01*
X18009Y348672D01*
X18026Y348571D01*
X18048Y348471D01*
X18073Y348372D01*
X18101Y348273D01*
X18134Y348176D01*
X18170Y348080D01*
X18209Y347985D01*
X18253Y347892D01*
X18299Y347801D01*
X18350Y347712D01*
X18403Y347624D01*
X18460Y347539D01*
X18520Y347456D01*
X18583Y347375D01*
X18649Y347296D01*
X18718Y347221D01*
X18790Y347147D01*
X18864Y347077D01*
X18941Y347009D01*
X19021Y346945D01*
X19103Y346883D01*
X19187Y346825D01*
X19274Y346770D01*
X19362Y346718D01*
X19453Y346670D01*
X19545Y346625D01*
X19638Y346583D01*
X19734Y346545D01*
X19830Y346511D01*
X19928Y346480D01*
X20027Y346454D01*
X20127Y346430D01*
X20228Y346411D01*
X20329Y346396D01*
X20431Y346384D01*
X20533Y346376D01*
X20636Y346372D01*
X20738Y346372D01*
X20841Y346376D01*
X20943Y346384D01*
X21045Y346396D01*
X21146Y346411D01*
X21247Y346430D01*
X21347Y346454D01*
X21446Y346480D01*
X21544Y346511D01*
X21640Y346545D01*
X21736Y346583D01*
X21829Y346625D01*
X21921Y346670D01*
X22012Y346718D01*
X22100Y346770D01*
X22187Y346825D01*
X22271Y346883D01*
X22353Y346945D01*
X22433Y347009D01*
X22510Y347077D01*
X22584Y347147D01*
X22656Y347221D01*
X22725Y347296D01*
X22791Y347375D01*
X22854Y347456D01*
X22914Y347539D01*
X22971Y347624D01*
X23024Y347712D01*
X23075Y347801D01*
X23121Y347892D01*
X23165Y347985D01*
X23204Y348080D01*
X23240Y348176D01*
X23273Y348273D01*
X23301Y348372D01*
X23326Y348471D01*
X23348Y348571D01*
X23365Y348672D01*
X23379Y348774D01*
X23388Y348876D01*
X23394Y348978D01*
X23396Y349081D01*
X23396Y348629D02*
X23396Y357209D01*
X23396Y348629D02*
X23398Y348536D01*
X23404Y348443D01*
X23413Y348350D01*
X23427Y348257D01*
X23444Y348166D01*
X23465Y348075D01*
X23490Y347985D01*
X23518Y347896D01*
X23550Y347808D01*
X23586Y347722D01*
X23625Y347637D01*
X23668Y347554D01*
X23714Y347473D01*
X23764Y347394D01*
X23816Y347317D01*
X23872Y347242D01*
X23931Y347170D01*
X23993Y347100D01*
X24057Y347032D01*
X24125Y346968D01*
X24195Y346906D01*
X24267Y346847D01*
X24342Y346791D01*
X24419Y346739D01*
X24498Y346689D01*
X24579Y346643D01*
X24662Y346600D01*
X24747Y346561D01*
X24833Y346525D01*
X24921Y346493D01*
X25010Y346465D01*
X25100Y346440D01*
X25191Y346419D01*
X25282Y346402D01*
X25375Y346388D01*
X25468Y346379D01*
X25561Y346373D01*
X25654Y346371D01*
X25747Y346373D01*
X25840Y346379D01*
X25933Y346388D01*
X26026Y346402D01*
X26117Y346419D01*
X26208Y346440D01*
X26298Y346465D01*
X26387Y346493D01*
X26475Y346525D01*
X26561Y346561D01*
X26646Y346600D01*
X26729Y346643D01*
X26810Y346689D01*
X26889Y346739D01*
X26966Y346791D01*
X27041Y346847D01*
X27113Y346906D01*
X27183Y346968D01*
X27251Y347032D01*
X27315Y347100D01*
X27377Y347170D01*
X27436Y347242D01*
X27492Y347317D01*
X27544Y347394D01*
X27594Y347473D01*
X27640Y347554D01*
X27683Y347637D01*
X27722Y347722D01*
X27758Y347808D01*
X27790Y347896D01*
X27818Y347985D01*
X27843Y348075D01*
X27864Y348166D01*
X27881Y348257D01*
X27895Y348350D01*
X27904Y348443D01*
X27910Y348536D01*
X27912Y348629D01*
X27912Y355402D01*
X27910Y355578D01*
X27903Y355754D01*
X27893Y355929D01*
X27878Y356105D01*
X27859Y356280D01*
X27835Y356454D01*
X27807Y356628D01*
X27775Y356801D01*
X27739Y356973D01*
X27699Y357144D01*
X27654Y357314D01*
X27606Y357484D01*
X27553Y357651D01*
X27496Y357818D01*
X27435Y357983D01*
X27370Y358147D01*
X27302Y358308D01*
X27229Y358469D01*
X27152Y358627D01*
X27072Y358784D01*
X26988Y358938D01*
X26900Y359090D01*
X26808Y359241D01*
X26713Y359389D01*
X26614Y359534D01*
X26511Y359677D01*
X26406Y359818D01*
X26296Y359956D01*
X26184Y360091D01*
X26068Y360223D01*
X25949Y360353D01*
X25827Y360480D01*
X25702Y360603D01*
X25574Y360724D01*
X25442Y360841D01*
X25309Y360955D01*
X25172Y361066D01*
X25033Y361174D01*
X24891Y361278D01*
X24747Y361379D01*
X24600Y361476D01*
X24451Y361569D01*
X24300Y361659D01*
X24146Y361745D01*
X23991Y361827D01*
X23833Y361906D01*
X23674Y361981D01*
X23513Y362052D01*
X23350Y362118D01*
X23186Y362181D01*
X23020Y362240D01*
X22853Y362295D01*
X22684Y362345D01*
X22514Y362392D01*
X22344Y362434D01*
X22172Y362473D01*
X21999Y362507D01*
X21826Y362537D01*
X21652Y362562D01*
X21477Y362584D01*
X21302Y362601D01*
X21127Y362614D01*
X20951Y362622D01*
X20775Y362626D01*
X20599Y362626D01*
X20423Y362622D01*
X20247Y362614D01*
X20072Y362601D01*
X19897Y362584D01*
X19722Y362562D01*
X19548Y362537D01*
X19375Y362507D01*
X19202Y362473D01*
X19030Y362434D01*
X18860Y362392D01*
X18690Y362345D01*
X18521Y362295D01*
X18354Y362240D01*
X18188Y362181D01*
X18024Y362118D01*
X17861Y362052D01*
X17700Y361981D01*
X17541Y361906D01*
X17383Y361827D01*
X17228Y361745D01*
X17075Y361659D01*
X16923Y361569D01*
X16774Y361476D01*
X16627Y361379D01*
X16483Y361278D01*
X16341Y361174D01*
X16202Y361066D01*
X16065Y360955D01*
X15932Y360841D01*
X15800Y360724D01*
X15672Y360603D01*
X15547Y360480D01*
X15425Y360353D01*
X15306Y360223D01*
X15190Y360091D01*
X15078Y359956D01*
X14968Y359818D01*
X14863Y359677D01*
X14760Y359534D01*
X14661Y359389D01*
X14566Y359241D01*
X14474Y359090D01*
X14386Y358938D01*
X14302Y358784D01*
X14222Y358627D01*
X14145Y358469D01*
X14072Y358308D01*
X14004Y358147D01*
X13939Y357983D01*
X13878Y357818D01*
X13821Y357651D01*
X13768Y357484D01*
X13720Y357314D01*
X13675Y357144D01*
X13635Y356973D01*
X13599Y356801D01*
X13567Y356628D01*
X13539Y356454D01*
X13515Y356280D01*
X13496Y356105D01*
X13481Y355929D01*
X13471Y355754D01*
X13464Y355578D01*
X13462Y355402D01*
X13462Y347726D01*
X13464Y347562D01*
X13470Y347397D01*
X13480Y347233D01*
X13494Y347069D01*
X13512Y346906D01*
X13534Y346743D01*
X13559Y346580D01*
X13589Y346419D01*
X13623Y346258D01*
X13660Y346098D01*
X13702Y345938D01*
X13747Y345780D01*
X13796Y345623D01*
X13849Y345468D01*
X13905Y345313D01*
X13966Y345160D01*
X14030Y345009D01*
X14097Y344859D01*
X14168Y344711D01*
X14243Y344564D01*
X14322Y344420D01*
X14403Y344277D01*
X14489Y344136D01*
X14577Y343998D01*
X14669Y343861D01*
X14765Y343727D01*
X14863Y343596D01*
X14965Y343466D01*
X15069Y343340D01*
X15177Y343215D01*
X15288Y343094D01*
X15402Y342975D01*
X15518Y342859D01*
X15637Y342746D01*
X15759Y342635D01*
X15884Y342528D01*
X16011Y342424D01*
X16141Y342323D01*
X16273Y342225D01*
X16407Y342130D01*
X16544Y342038D01*
X16683Y341950D01*
X16824Y341866D01*
X16967Y341784D01*
X17112Y341707D01*
X17258Y341632D01*
X17407Y341562D01*
X17557Y341494D01*
X17709Y341431D01*
X17862Y341371D01*
X18016Y341315D01*
X18172Y341263D01*
X18330Y341215D01*
X18488Y341170D01*
X18647Y341129D01*
X18807Y341092D01*
X18968Y341059D01*
X19130Y341030D01*
X19293Y341005D01*
X19456Y340984D01*
X19619Y340966D01*
X19783Y340953D01*
X42462Y343662D02*
X42462Y359918D01*
X42462Y343662D02*
X37947Y343662D01*
X37846Y343664D01*
X37745Y343670D01*
X37644Y343679D01*
X37543Y343692D01*
X37443Y343709D01*
X37344Y343730D01*
X37246Y343754D01*
X37149Y343782D01*
X37052Y343814D01*
X36957Y343849D01*
X36864Y343888D01*
X36772Y343930D01*
X36681Y343976D01*
X36593Y344025D01*
X36506Y344077D01*
X36421Y344133D01*
X36338Y344191D01*
X36258Y344253D01*
X36180Y344318D01*
X36104Y344385D01*
X36031Y344455D01*
X35961Y344528D01*
X35894Y344604D01*
X35829Y344682D01*
X35767Y344762D01*
X35709Y344845D01*
X35653Y344930D01*
X35601Y345017D01*
X35552Y345105D01*
X35506Y345196D01*
X35464Y345288D01*
X35425Y345381D01*
X35390Y345476D01*
X35358Y345573D01*
X35330Y345670D01*
X35306Y345768D01*
X35285Y345867D01*
X35268Y345967D01*
X35255Y346068D01*
X35246Y346169D01*
X35240Y346270D01*
X35238Y346371D01*
X35238Y351790D01*
X35240Y351891D01*
X35246Y351992D01*
X35255Y352093D01*
X35268Y352194D01*
X35285Y352294D01*
X35306Y352393D01*
X35330Y352491D01*
X35358Y352588D01*
X35390Y352685D01*
X35425Y352780D01*
X35464Y352873D01*
X35506Y352965D01*
X35552Y353056D01*
X35601Y353145D01*
X35653Y353231D01*
X35709Y353316D01*
X35767Y353399D01*
X35829Y353479D01*
X35894Y353557D01*
X35961Y353633D01*
X36031Y353706D01*
X36104Y353776D01*
X36180Y353843D01*
X36258Y353908D01*
X36338Y353970D01*
X36421Y354028D01*
X36506Y354084D01*
X36593Y354136D01*
X36681Y354185D01*
X36772Y354231D01*
X36864Y354273D01*
X36957Y354312D01*
X37052Y354347D01*
X37149Y354379D01*
X37246Y354407D01*
X37344Y354431D01*
X37443Y354452D01*
X37543Y354469D01*
X37644Y354482D01*
X37745Y354491D01*
X37846Y354497D01*
X37947Y354499D01*
X42462Y354499D01*
X49616Y359918D02*
X49616Y346371D01*
X49618Y346270D01*
X49624Y346169D01*
X49633Y346068D01*
X49646Y345967D01*
X49663Y345867D01*
X49684Y345768D01*
X49708Y345670D01*
X49736Y345573D01*
X49768Y345476D01*
X49803Y345381D01*
X49842Y345288D01*
X49884Y345196D01*
X49930Y345105D01*
X49979Y345017D01*
X50031Y344930D01*
X50087Y344845D01*
X50145Y344762D01*
X50207Y344682D01*
X50272Y344604D01*
X50339Y344528D01*
X50409Y344455D01*
X50482Y344385D01*
X50558Y344318D01*
X50636Y344253D01*
X50716Y344191D01*
X50799Y344133D01*
X50884Y344077D01*
X50971Y344025D01*
X51059Y343976D01*
X51150Y343930D01*
X51242Y343888D01*
X51335Y343849D01*
X51430Y343814D01*
X51527Y343782D01*
X51624Y343754D01*
X51722Y343730D01*
X51821Y343709D01*
X51921Y343692D01*
X52022Y343679D01*
X52123Y343670D01*
X52224Y343664D01*
X52325Y343662D01*
X57953Y346371D02*
X57953Y359918D01*
X57953Y346371D02*
X57955Y346270D01*
X57961Y346169D01*
X57970Y346068D01*
X57983Y345967D01*
X58000Y345867D01*
X58021Y345768D01*
X58045Y345670D01*
X58073Y345573D01*
X58105Y345476D01*
X58140Y345381D01*
X58179Y345288D01*
X58221Y345196D01*
X58267Y345105D01*
X58316Y345017D01*
X58368Y344930D01*
X58424Y344845D01*
X58482Y344762D01*
X58544Y344682D01*
X58609Y344604D01*
X58676Y344528D01*
X58746Y344455D01*
X58819Y344385D01*
X58895Y344318D01*
X58973Y344253D01*
X59053Y344191D01*
X59136Y344133D01*
X59221Y344077D01*
X59308Y344025D01*
X59396Y343976D01*
X59487Y343930D01*
X59579Y343888D01*
X59672Y343849D01*
X59767Y343814D01*
X59864Y343782D01*
X59961Y343754D01*
X60059Y343730D01*
X60158Y343709D01*
X60258Y343692D01*
X60359Y343679D01*
X60460Y343670D01*
X60561Y343664D01*
X60662Y343662D01*
X66851Y343662D02*
X66851Y354499D01*
X74979Y354499D01*
X75080Y354497D01*
X75181Y354491D01*
X75282Y354482D01*
X75383Y354469D01*
X75483Y354452D01*
X75582Y354431D01*
X75680Y354407D01*
X75777Y354379D01*
X75874Y354347D01*
X75969Y354312D01*
X76062Y354273D01*
X76154Y354231D01*
X76245Y354185D01*
X76334Y354136D01*
X76420Y354084D01*
X76505Y354028D01*
X76588Y353970D01*
X76668Y353908D01*
X76746Y353843D01*
X76822Y353776D01*
X76895Y353706D01*
X76965Y353633D01*
X77032Y353557D01*
X77097Y353479D01*
X77159Y353399D01*
X77217Y353316D01*
X77273Y353231D01*
X77325Y353145D01*
X77374Y353056D01*
X77420Y352965D01*
X77462Y352873D01*
X77501Y352780D01*
X77536Y352685D01*
X77568Y352588D01*
X77596Y352491D01*
X77620Y352393D01*
X77641Y352294D01*
X77658Y352194D01*
X77671Y352093D01*
X77680Y351992D01*
X77686Y351891D01*
X77688Y351790D01*
X77689Y351790D02*
X77689Y343662D01*
X72270Y343662D02*
X72270Y354499D01*
X85500Y359918D02*
X85500Y343662D01*
X85500Y349081D02*
X92724Y354499D01*
X88660Y351338D02*
X92724Y343662D01*
X105508Y343662D02*
X105508Y359918D01*
X105508Y343662D02*
X100993Y343662D01*
X100892Y343664D01*
X100791Y343670D01*
X100690Y343679D01*
X100589Y343692D01*
X100489Y343709D01*
X100390Y343730D01*
X100292Y343754D01*
X100195Y343782D01*
X100098Y343814D01*
X100003Y343849D01*
X99910Y343888D01*
X99818Y343930D01*
X99727Y343976D01*
X99639Y344025D01*
X99552Y344077D01*
X99467Y344133D01*
X99384Y344191D01*
X99304Y344253D01*
X99226Y344318D01*
X99150Y344385D01*
X99077Y344455D01*
X99007Y344528D01*
X98940Y344604D01*
X98875Y344682D01*
X98813Y344762D01*
X98755Y344845D01*
X98699Y344930D01*
X98647Y345017D01*
X98598Y345105D01*
X98552Y345196D01*
X98510Y345288D01*
X98471Y345381D01*
X98436Y345476D01*
X98404Y345573D01*
X98376Y345670D01*
X98352Y345768D01*
X98331Y345867D01*
X98314Y345967D01*
X98301Y346068D01*
X98292Y346169D01*
X98286Y346270D01*
X98284Y346371D01*
X98284Y351790D01*
X98286Y351891D01*
X98292Y351992D01*
X98301Y352093D01*
X98314Y352194D01*
X98331Y352294D01*
X98352Y352393D01*
X98376Y352491D01*
X98404Y352588D01*
X98436Y352685D01*
X98471Y352780D01*
X98510Y352873D01*
X98552Y352965D01*
X98598Y353056D01*
X98647Y353145D01*
X98699Y353231D01*
X98755Y353316D01*
X98813Y353399D01*
X98875Y353479D01*
X98940Y353557D01*
X99007Y353633D01*
X99077Y353706D01*
X99150Y353776D01*
X99226Y353843D01*
X99304Y353908D01*
X99384Y353970D01*
X99467Y354028D01*
X99552Y354084D01*
X99639Y354136D01*
X99727Y354185D01*
X99818Y354231D01*
X99910Y354273D01*
X100003Y354312D01*
X100098Y354347D01*
X100195Y354379D01*
X100292Y354407D01*
X100390Y354431D01*
X100489Y354452D01*
X100589Y354469D01*
X100690Y354482D01*
X100791Y354491D01*
X100892Y354497D01*
X100993Y354499D01*
X105508Y354499D01*
X112390Y354499D02*
X112390Y343662D01*
X111939Y359015D02*
X111939Y359918D01*
X112842Y359918D01*
X112842Y359015D01*
X111939Y359015D01*
X119283Y354499D02*
X119283Y343662D01*
X119283Y354499D02*
X124702Y354499D01*
X124702Y352693D01*
D11*
X444500Y279400D03*
X444500Y330200D03*
D12*
X375920Y279400D02*
X360680Y279400D01*
X360680Y304800D02*
X375920Y304800D01*
X375920Y330200D02*
X360680Y330200D01*
D13*
X228600Y286004D02*
X228600Y272796D01*
X279400Y272796D02*
X279400Y286004D01*
X254000Y286004D02*
X254000Y272796D01*
D14*
X342900Y190500D03*
X266700Y190500D03*
D15*
X152400Y215900D03*
X152400Y139700D03*
D16*
X380100Y134440D02*
X380100Y121360D01*
X412600Y121360D02*
X412600Y134440D01*
D17*
X442100Y135440D02*
X442100Y120360D01*
D16*
X215000Y121360D02*
X215000Y134440D01*
X247500Y134440D02*
X247500Y121360D01*
D17*
X277000Y120360D02*
X277000Y135440D01*
D18*
X342900Y190500D02*
X342900Y292100D01*
X355600Y304800D01*
X368300Y304800D01*
X266700Y190500D02*
X254000Y190500D01*
X254000Y279400D01*
X444500Y279400D02*
X444500Y254000D01*
X431800Y241300D01*
X419100Y241300D01*
X368300Y241300D01*
X368300Y279400D01*
X177800Y165100D02*
X152400Y139700D01*
X177800Y165100D02*
X406400Y165100D01*
X419100Y177800D01*
X419100Y241300D01*
X368300Y330200D02*
X368300Y355600D01*
X368300Y368300D01*
X381000Y381000D01*
X431800Y381000D01*
X444500Y368300D01*
X444500Y330200D01*
X292100Y279400D02*
X279400Y279400D01*
X292100Y279400D02*
X304800Y292100D01*
X304800Y355600D01*
X368300Y355600D01*
X239500Y152400D02*
X215000Y127900D01*
X239500Y152400D02*
X381000Y152400D01*
X482600Y152400D01*
X482600Y355600D01*
X469900Y368300D01*
X444500Y368300D01*
X380100Y151500D02*
X380100Y127900D01*
X380100Y151500D02*
X381000Y152400D01*
X412600Y127900D02*
X412600Y88900D01*
X412600Y82400D01*
X406400Y76200D01*
X279400Y76200D01*
X254000Y76200D01*
X101600Y76200D01*
X101600Y279400D01*
X152400Y279400D01*
X228600Y279400D01*
X442100Y127900D02*
X442100Y99200D01*
X431800Y88900D01*
X412600Y88900D01*
X279400Y125500D02*
X277000Y127900D01*
X279400Y125500D02*
X279400Y76200D01*
X254000Y121400D02*
X247500Y127900D01*
X254000Y121400D02*
X254000Y76200D01*
X152400Y215900D02*
X152400Y279400D01*
M02*
