M48
;GenerationSoftware,Autodesk,EAGLE,9.0.0*%
;CreationDate,2019-09-16T04:44:38Z*%
FMAT,2
ICI,OFF
METRIC,TZ,000.000
T5C0.800
T4C0.813
T3C1.000
T2C1.016
T1C1.600
%
G90
M71
T1
X41910Y2540
X25400Y2540
T2
X36830Y27940
X36830Y30480
X36830Y33020
T3
X44210Y12790
X27700Y12790
T4
X44450Y27940
X44450Y33020
X22860Y27940
X27940Y27940
X25400Y27940
X34290Y19050
X26670Y19050
X15240Y21590
X15240Y13970
T5
X38010Y12790
X41260Y12790
X21500Y12790
X24750Y12790
M30