G04 EAGLE Gerber X2 export*
%TF.Part,Single*%
%TF.FileFunction,Profile,NP*%
%TF.FilePolarity,Positive*%
%TF.GenerationSoftware,Autodesk,EAGLE,9.0.0*%
%TF.CreationDate,2019-09-16T04:44:38Z*%
G75*
%MOMM*%
%FSLAX34Y34*%
%LPD*%
%AMOC8*
5,1,8,0,0,1.08239X$1,22.5*%
G01*
%ADD10C,0.254000*%


D10*
X0Y0D02*
X504700Y0D01*
X504700Y419000D01*
X0Y419000D01*
X0Y0D01*
X211000Y121900D02*
X211015Y121551D01*
X211061Y121205D01*
X211136Y120865D01*
X211241Y120532D01*
X211375Y120210D01*
X211536Y119900D01*
X211723Y119606D01*
X211936Y119329D01*
X212172Y119072D01*
X212429Y118836D01*
X212706Y118623D01*
X213000Y118436D01*
X213310Y118275D01*
X213632Y118141D01*
X213965Y118036D01*
X214305Y117961D01*
X214651Y117915D01*
X215000Y117900D01*
X215349Y117915D01*
X215695Y117961D01*
X216035Y118036D01*
X216368Y118141D01*
X216690Y118275D01*
X217000Y118436D01*
X217294Y118623D01*
X217571Y118836D01*
X217828Y119072D01*
X218064Y119329D01*
X218277Y119606D01*
X218464Y119900D01*
X218625Y120210D01*
X218759Y120532D01*
X218864Y120865D01*
X218939Y121205D01*
X218985Y121551D01*
X219000Y121900D01*
X219000Y133900D01*
X218985Y134249D01*
X218939Y134595D01*
X218864Y134935D01*
X218759Y135268D01*
X218625Y135590D01*
X218464Y135900D01*
X218277Y136194D01*
X218064Y136471D01*
X217828Y136728D01*
X217571Y136964D01*
X217294Y137177D01*
X217000Y137364D01*
X216690Y137525D01*
X216368Y137659D01*
X216035Y137764D01*
X215695Y137839D01*
X215349Y137885D01*
X215000Y137900D01*
X214651Y137885D01*
X214305Y137839D01*
X213965Y137764D01*
X213632Y137659D01*
X213310Y137525D01*
X213000Y137364D01*
X212706Y137177D01*
X212429Y136964D01*
X212172Y136728D01*
X211936Y136471D01*
X211723Y136194D01*
X211536Y135900D01*
X211375Y135590D01*
X211241Y135268D01*
X211136Y134935D01*
X211061Y134595D01*
X211015Y134249D01*
X211000Y133900D01*
X211000Y121900D01*
X272000Y122900D02*
X272019Y122464D01*
X272076Y122032D01*
X272170Y121606D01*
X272302Y121190D01*
X272468Y120787D01*
X272670Y120400D01*
X272904Y120032D01*
X273170Y119686D01*
X273464Y119364D01*
X273786Y119070D01*
X274132Y118804D01*
X274500Y118570D01*
X274887Y118368D01*
X275290Y118202D01*
X275706Y118070D01*
X276132Y117976D01*
X276564Y117919D01*
X277000Y117900D01*
X277436Y117919D01*
X277868Y117976D01*
X278294Y118070D01*
X278710Y118202D01*
X279113Y118368D01*
X279500Y118570D01*
X279868Y118804D01*
X280214Y119070D01*
X280536Y119364D01*
X280830Y119686D01*
X281096Y120032D01*
X281330Y120400D01*
X281532Y120787D01*
X281698Y121190D01*
X281830Y121606D01*
X281924Y122032D01*
X281981Y122464D01*
X282000Y122900D01*
X282000Y132900D01*
X281981Y133336D01*
X281924Y133768D01*
X281830Y134194D01*
X281698Y134610D01*
X281532Y135013D01*
X281330Y135400D01*
X281096Y135768D01*
X280830Y136114D01*
X280536Y136436D01*
X280214Y136730D01*
X279868Y136996D01*
X279500Y137230D01*
X279113Y137432D01*
X278710Y137598D01*
X278294Y137730D01*
X277868Y137824D01*
X277436Y137881D01*
X277000Y137900D01*
X276564Y137881D01*
X276132Y137824D01*
X275706Y137730D01*
X275290Y137598D01*
X274887Y137432D01*
X274500Y137230D01*
X274132Y136996D01*
X273786Y136730D01*
X273464Y136436D01*
X273170Y136114D01*
X272904Y135768D01*
X272670Y135400D01*
X272468Y135013D01*
X272302Y134610D01*
X272170Y134194D01*
X272076Y133768D01*
X272019Y133336D01*
X272000Y132900D01*
X272000Y122900D01*
X243500Y121900D02*
X243515Y121551D01*
X243561Y121205D01*
X243636Y120865D01*
X243741Y120532D01*
X243875Y120210D01*
X244036Y119900D01*
X244223Y119606D01*
X244436Y119329D01*
X244672Y119072D01*
X244929Y118836D01*
X245206Y118623D01*
X245500Y118436D01*
X245810Y118275D01*
X246132Y118141D01*
X246465Y118036D01*
X246805Y117961D01*
X247151Y117915D01*
X247500Y117900D01*
X247849Y117915D01*
X248195Y117961D01*
X248535Y118036D01*
X248868Y118141D01*
X249190Y118275D01*
X249500Y118436D01*
X249794Y118623D01*
X250071Y118836D01*
X250328Y119072D01*
X250564Y119329D01*
X250777Y119606D01*
X250964Y119900D01*
X251125Y120210D01*
X251259Y120532D01*
X251364Y120865D01*
X251439Y121205D01*
X251485Y121551D01*
X251500Y121900D01*
X251500Y133900D01*
X251485Y134249D01*
X251439Y134595D01*
X251364Y134935D01*
X251259Y135268D01*
X251125Y135590D01*
X250964Y135900D01*
X250777Y136194D01*
X250564Y136471D01*
X250328Y136728D01*
X250071Y136964D01*
X249794Y137177D01*
X249500Y137364D01*
X249190Y137525D01*
X248868Y137659D01*
X248535Y137764D01*
X248195Y137839D01*
X247849Y137885D01*
X247500Y137900D01*
X247151Y137885D01*
X246805Y137839D01*
X246465Y137764D01*
X246132Y137659D01*
X245810Y137525D01*
X245500Y137364D01*
X245206Y137177D01*
X244929Y136964D01*
X244672Y136728D01*
X244436Y136471D01*
X244223Y136194D01*
X244036Y135900D01*
X243875Y135590D01*
X243741Y135268D01*
X243636Y134935D01*
X243561Y134595D01*
X243515Y134249D01*
X243500Y133900D01*
X243500Y121900D01*
X376100Y121900D02*
X376115Y121551D01*
X376161Y121205D01*
X376236Y120865D01*
X376341Y120532D01*
X376475Y120210D01*
X376636Y119900D01*
X376823Y119606D01*
X377036Y119329D01*
X377272Y119072D01*
X377529Y118836D01*
X377806Y118623D01*
X378100Y118436D01*
X378410Y118275D01*
X378732Y118141D01*
X379065Y118036D01*
X379405Y117961D01*
X379751Y117915D01*
X380100Y117900D01*
X380449Y117915D01*
X380795Y117961D01*
X381135Y118036D01*
X381468Y118141D01*
X381790Y118275D01*
X382100Y118436D01*
X382394Y118623D01*
X382671Y118836D01*
X382928Y119072D01*
X383164Y119329D01*
X383377Y119606D01*
X383564Y119900D01*
X383725Y120210D01*
X383859Y120532D01*
X383964Y120865D01*
X384039Y121205D01*
X384085Y121551D01*
X384100Y121900D01*
X384100Y133900D01*
X384085Y134249D01*
X384039Y134595D01*
X383964Y134935D01*
X383859Y135268D01*
X383725Y135590D01*
X383564Y135900D01*
X383377Y136194D01*
X383164Y136471D01*
X382928Y136728D01*
X382671Y136964D01*
X382394Y137177D01*
X382100Y137364D01*
X381790Y137525D01*
X381468Y137659D01*
X381135Y137764D01*
X380795Y137839D01*
X380449Y137885D01*
X380100Y137900D01*
X379751Y137885D01*
X379405Y137839D01*
X379065Y137764D01*
X378732Y137659D01*
X378410Y137525D01*
X378100Y137364D01*
X377806Y137177D01*
X377529Y136964D01*
X377272Y136728D01*
X377036Y136471D01*
X376823Y136194D01*
X376636Y135900D01*
X376475Y135590D01*
X376341Y135268D01*
X376236Y134935D01*
X376161Y134595D01*
X376115Y134249D01*
X376100Y133900D01*
X376100Y121900D01*
X437100Y122900D02*
X437119Y122464D01*
X437176Y122032D01*
X437270Y121606D01*
X437402Y121190D01*
X437568Y120787D01*
X437770Y120400D01*
X438004Y120032D01*
X438270Y119686D01*
X438564Y119364D01*
X438886Y119070D01*
X439232Y118804D01*
X439600Y118570D01*
X439987Y118368D01*
X440390Y118202D01*
X440806Y118070D01*
X441232Y117976D01*
X441664Y117919D01*
X442100Y117900D01*
X442536Y117919D01*
X442968Y117976D01*
X443394Y118070D01*
X443810Y118202D01*
X444213Y118368D01*
X444600Y118570D01*
X444968Y118804D01*
X445314Y119070D01*
X445636Y119364D01*
X445930Y119686D01*
X446196Y120032D01*
X446430Y120400D01*
X446632Y120787D01*
X446798Y121190D01*
X446930Y121606D01*
X447024Y122032D01*
X447081Y122464D01*
X447100Y122900D01*
X447100Y132900D01*
X447081Y133336D01*
X447024Y133768D01*
X446930Y134194D01*
X446798Y134610D01*
X446632Y135013D01*
X446430Y135400D01*
X446196Y135768D01*
X445930Y136114D01*
X445636Y136436D01*
X445314Y136730D01*
X444968Y136996D01*
X444600Y137230D01*
X444213Y137432D01*
X443810Y137598D01*
X443394Y137730D01*
X442968Y137824D01*
X442536Y137881D01*
X442100Y137900D01*
X441664Y137881D01*
X441232Y137824D01*
X440806Y137730D01*
X440390Y137598D01*
X439987Y137432D01*
X439600Y137230D01*
X439232Y136996D01*
X438886Y136730D01*
X438564Y136436D01*
X438270Y136114D01*
X438004Y135768D01*
X437770Y135400D01*
X437568Y135013D01*
X437402Y134610D01*
X437270Y134194D01*
X437176Y133768D01*
X437119Y133336D01*
X437100Y132900D01*
X437100Y122900D01*
X408600Y121900D02*
X408615Y121551D01*
X408661Y121205D01*
X408736Y120865D01*
X408841Y120532D01*
X408975Y120210D01*
X409136Y119900D01*
X409323Y119606D01*
X409536Y119329D01*
X409772Y119072D01*
X410029Y118836D01*
X410306Y118623D01*
X410600Y118436D01*
X410910Y118275D01*
X411232Y118141D01*
X411565Y118036D01*
X411905Y117961D01*
X412251Y117915D01*
X412600Y117900D01*
X412949Y117915D01*
X413295Y117961D01*
X413635Y118036D01*
X413968Y118141D01*
X414290Y118275D01*
X414600Y118436D01*
X414894Y118623D01*
X415171Y118836D01*
X415428Y119072D01*
X415664Y119329D01*
X415877Y119606D01*
X416064Y119900D01*
X416225Y120210D01*
X416359Y120532D01*
X416464Y120865D01*
X416539Y121205D01*
X416585Y121551D01*
X416600Y121900D01*
X416600Y133900D01*
X416585Y134249D01*
X416539Y134595D01*
X416464Y134935D01*
X416359Y135268D01*
X416225Y135590D01*
X416064Y135900D01*
X415877Y136194D01*
X415664Y136471D01*
X415428Y136728D01*
X415171Y136964D01*
X414894Y137177D01*
X414600Y137364D01*
X414290Y137525D01*
X413968Y137659D01*
X413635Y137764D01*
X413295Y137839D01*
X412949Y137885D01*
X412600Y137900D01*
X412251Y137885D01*
X411905Y137839D01*
X411565Y137764D01*
X411232Y137659D01*
X410910Y137525D01*
X410600Y137364D01*
X410306Y137177D01*
X410029Y136964D01*
X409772Y136728D01*
X409536Y136471D01*
X409323Y136194D01*
X409136Y135900D01*
X408975Y135590D01*
X408841Y135268D01*
X408736Y134935D01*
X408661Y134595D01*
X408615Y134249D01*
X408600Y133900D01*
X408600Y121900D01*
X411100Y25793D02*
X411177Y26575D01*
X411330Y27346D01*
X411559Y28098D01*
X411859Y28825D01*
X412230Y29518D01*
X412667Y30171D01*
X413165Y30779D01*
X413721Y31335D01*
X414329Y31833D01*
X414982Y32270D01*
X415675Y32641D01*
X416402Y32941D01*
X417154Y33170D01*
X417925Y33323D01*
X418707Y33400D01*
X419493Y33400D01*
X420275Y33323D01*
X421046Y33170D01*
X421798Y32941D01*
X422525Y32641D01*
X423218Y32270D01*
X423871Y31833D01*
X424479Y31335D01*
X425035Y30779D01*
X425533Y30171D01*
X425970Y29518D01*
X426341Y28825D01*
X426641Y28098D01*
X426870Y27346D01*
X427023Y26575D01*
X427100Y25793D01*
X427100Y25007D01*
X427023Y24225D01*
X426870Y23454D01*
X426641Y22702D01*
X426341Y21975D01*
X425970Y21282D01*
X425533Y20629D01*
X425035Y20021D01*
X424479Y19465D01*
X423871Y18967D01*
X423218Y18530D01*
X422525Y18159D01*
X421798Y17859D01*
X421046Y17630D01*
X420275Y17477D01*
X419493Y17400D01*
X418707Y17400D01*
X417925Y17477D01*
X417154Y17630D01*
X416402Y17859D01*
X415675Y18159D01*
X414982Y18530D01*
X414329Y18967D01*
X413721Y19465D01*
X413165Y20021D01*
X412667Y20629D01*
X412230Y21282D01*
X411859Y21975D01*
X411559Y22702D01*
X411330Y23454D01*
X411177Y24225D01*
X411100Y25007D01*
X411100Y25793D01*
X246000Y25793D02*
X246077Y26575D01*
X246230Y27346D01*
X246459Y28098D01*
X246759Y28825D01*
X247130Y29518D01*
X247567Y30171D01*
X248065Y30779D01*
X248621Y31335D01*
X249229Y31833D01*
X249882Y32270D01*
X250575Y32641D01*
X251302Y32941D01*
X252054Y33170D01*
X252825Y33323D01*
X253607Y33400D01*
X254393Y33400D01*
X255175Y33323D01*
X255946Y33170D01*
X256698Y32941D01*
X257425Y32641D01*
X258118Y32270D01*
X258771Y31833D01*
X259379Y31335D01*
X259935Y30779D01*
X260433Y30171D01*
X260870Y29518D01*
X261241Y28825D01*
X261541Y28098D01*
X261770Y27346D01*
X261923Y26575D01*
X262000Y25793D01*
X262000Y25007D01*
X261923Y24225D01*
X261770Y23454D01*
X261541Y22702D01*
X261241Y21975D01*
X260870Y21282D01*
X260433Y20629D01*
X259935Y20021D01*
X259379Y19465D01*
X258771Y18967D01*
X258118Y18530D01*
X257425Y18159D01*
X256698Y17859D01*
X255946Y17630D01*
X255175Y17477D01*
X254393Y17400D01*
X253607Y17400D01*
X252825Y17477D01*
X252054Y17630D01*
X251302Y17859D01*
X250575Y18159D01*
X249882Y18530D01*
X249229Y18967D01*
X248621Y19465D01*
X248065Y20021D01*
X247567Y20629D01*
X247130Y21282D01*
X246759Y21975D01*
X246459Y22702D01*
X246230Y23454D01*
X246077Y24225D01*
X246000Y25007D01*
X246000Y25793D01*
M02*
