G04 EAGLE Gerber X2 export*
%TF.Part,Single*%
%TF.FileFunction,Legend,Top,1*%
%TF.FilePolarity,Positive*%
%TF.GenerationSoftware,Autodesk,EAGLE,9.0.0*%
%TF.CreationDate,2019-09-16T04:44:38Z*%
G75*
%MOMM*%
%FSLAX34Y34*%
%LPD*%
%AMOC8*
5,1,8,0,0,1.08239X$1,22.5*%
G01*
%ADD10C,0.304800*%
%ADD11C,0.152400*%
%ADD12C,0.127000*%
%ADD13C,0.203200*%
%ADD14C,0.101600*%


D10*
X438150Y301752D02*
X444500Y301752D01*
X450850Y301752D01*
D11*
X444500Y301752D02*
X444500Y289560D01*
D10*
X444500Y308102D02*
X438150Y308102D01*
X444500Y308102D02*
X450850Y308102D01*
D11*
X444500Y308102D02*
X444500Y320040D01*
X429260Y267970D02*
X459740Y267970D01*
X462280Y270510D02*
X462280Y339090D01*
X459740Y341630D02*
X429260Y341630D01*
X426720Y339090D02*
X426720Y270510D01*
X426720Y339090D02*
X426722Y339190D01*
X426728Y339289D01*
X426738Y339389D01*
X426751Y339487D01*
X426769Y339586D01*
X426790Y339683D01*
X426815Y339779D01*
X426844Y339875D01*
X426877Y339969D01*
X426913Y340062D01*
X426953Y340153D01*
X426997Y340243D01*
X427044Y340331D01*
X427094Y340417D01*
X427148Y340501D01*
X427205Y340583D01*
X427265Y340662D01*
X427329Y340740D01*
X427395Y340814D01*
X427464Y340886D01*
X427536Y340955D01*
X427610Y341021D01*
X427688Y341085D01*
X427767Y341145D01*
X427849Y341202D01*
X427933Y341256D01*
X428019Y341306D01*
X428107Y341353D01*
X428197Y341397D01*
X428288Y341437D01*
X428381Y341473D01*
X428475Y341506D01*
X428571Y341535D01*
X428667Y341560D01*
X428764Y341581D01*
X428863Y341599D01*
X428961Y341612D01*
X429061Y341622D01*
X429160Y341628D01*
X429260Y341630D01*
X459740Y341630D02*
X459840Y341628D01*
X459939Y341622D01*
X460039Y341612D01*
X460137Y341599D01*
X460236Y341581D01*
X460333Y341560D01*
X460429Y341535D01*
X460525Y341506D01*
X460619Y341473D01*
X460712Y341437D01*
X460803Y341397D01*
X460893Y341353D01*
X460981Y341306D01*
X461067Y341256D01*
X461151Y341202D01*
X461233Y341145D01*
X461312Y341085D01*
X461390Y341021D01*
X461464Y340955D01*
X461536Y340886D01*
X461605Y340814D01*
X461671Y340740D01*
X461735Y340662D01*
X461795Y340583D01*
X461852Y340501D01*
X461906Y340417D01*
X461956Y340331D01*
X462003Y340243D01*
X462047Y340153D01*
X462087Y340062D01*
X462123Y339969D01*
X462156Y339875D01*
X462185Y339779D01*
X462210Y339683D01*
X462231Y339586D01*
X462249Y339487D01*
X462262Y339389D01*
X462272Y339289D01*
X462278Y339190D01*
X462280Y339090D01*
X462280Y270510D02*
X462278Y270410D01*
X462272Y270311D01*
X462262Y270211D01*
X462249Y270113D01*
X462231Y270014D01*
X462210Y269917D01*
X462185Y269821D01*
X462156Y269725D01*
X462123Y269631D01*
X462087Y269538D01*
X462047Y269447D01*
X462003Y269357D01*
X461956Y269269D01*
X461906Y269183D01*
X461852Y269099D01*
X461795Y269017D01*
X461735Y268938D01*
X461671Y268860D01*
X461605Y268786D01*
X461536Y268714D01*
X461464Y268645D01*
X461390Y268579D01*
X461312Y268515D01*
X461233Y268455D01*
X461151Y268398D01*
X461067Y268344D01*
X460981Y268294D01*
X460893Y268247D01*
X460803Y268203D01*
X460712Y268163D01*
X460619Y268127D01*
X460525Y268094D01*
X460429Y268065D01*
X460333Y268040D01*
X460236Y268019D01*
X460137Y268001D01*
X460039Y267988D01*
X459939Y267978D01*
X459840Y267972D01*
X459740Y267970D01*
X429260Y267970D02*
X429160Y267972D01*
X429061Y267978D01*
X428961Y267988D01*
X428863Y268001D01*
X428764Y268019D01*
X428667Y268040D01*
X428571Y268065D01*
X428475Y268094D01*
X428381Y268127D01*
X428288Y268163D01*
X428197Y268203D01*
X428107Y268247D01*
X428019Y268294D01*
X427933Y268344D01*
X427849Y268398D01*
X427767Y268455D01*
X427688Y268515D01*
X427610Y268579D01*
X427536Y268645D01*
X427464Y268714D01*
X427395Y268786D01*
X427329Y268860D01*
X427265Y268938D01*
X427205Y269017D01*
X427148Y269099D01*
X427094Y269183D01*
X427044Y269269D01*
X426997Y269357D01*
X426953Y269447D01*
X426913Y269538D01*
X426877Y269631D01*
X426844Y269725D01*
X426815Y269821D01*
X426790Y269917D01*
X426769Y270014D01*
X426751Y270113D01*
X426738Y270211D01*
X426728Y270311D01*
X426722Y270410D01*
X426720Y270510D01*
D12*
X422275Y272415D02*
X422275Y274955D01*
X422275Y272415D02*
X422273Y272315D01*
X422267Y272216D01*
X422257Y272116D01*
X422244Y272018D01*
X422226Y271919D01*
X422205Y271822D01*
X422180Y271726D01*
X422151Y271630D01*
X422118Y271536D01*
X422082Y271443D01*
X422042Y271352D01*
X421998Y271262D01*
X421951Y271174D01*
X421901Y271088D01*
X421847Y271004D01*
X421790Y270922D01*
X421730Y270843D01*
X421666Y270765D01*
X421600Y270691D01*
X421531Y270619D01*
X421459Y270550D01*
X421385Y270484D01*
X421307Y270420D01*
X421228Y270360D01*
X421146Y270303D01*
X421062Y270249D01*
X420976Y270199D01*
X420888Y270152D01*
X420798Y270108D01*
X420707Y270068D01*
X420614Y270032D01*
X420520Y269999D01*
X420424Y269970D01*
X420328Y269945D01*
X420231Y269924D01*
X420132Y269906D01*
X420034Y269893D01*
X419934Y269883D01*
X419835Y269877D01*
X419735Y269875D01*
X413385Y269875D01*
X413285Y269877D01*
X413186Y269883D01*
X413086Y269893D01*
X412988Y269906D01*
X412889Y269924D01*
X412792Y269945D01*
X412696Y269970D01*
X412600Y269999D01*
X412506Y270032D01*
X412413Y270068D01*
X412322Y270108D01*
X412232Y270152D01*
X412144Y270199D01*
X412058Y270249D01*
X411974Y270303D01*
X411892Y270360D01*
X411813Y270420D01*
X411735Y270484D01*
X411661Y270550D01*
X411589Y270619D01*
X411520Y270691D01*
X411454Y270765D01*
X411390Y270843D01*
X411330Y270922D01*
X411273Y271004D01*
X411219Y271088D01*
X411169Y271174D01*
X411122Y271262D01*
X411078Y271352D01*
X411038Y271443D01*
X411002Y271536D01*
X410969Y271630D01*
X410940Y271726D01*
X410915Y271822D01*
X410894Y271919D01*
X410876Y272018D01*
X410863Y272116D01*
X410853Y272216D01*
X410847Y272315D01*
X410845Y272415D01*
X410845Y274955D01*
X413385Y279437D02*
X410845Y282612D01*
X422275Y282612D01*
X422275Y279437D02*
X422275Y285787D01*
D11*
X355600Y285750D02*
X355600Y273050D01*
X355600Y285750D02*
X361950Y292100D01*
X374650Y292100D01*
X381000Y285750D01*
X361950Y292100D02*
X355600Y298450D01*
X355600Y311150D01*
X361950Y317500D01*
X374650Y317500D01*
X381000Y311150D01*
X381000Y298450D01*
X374650Y292100D01*
X374650Y266700D02*
X361950Y266700D01*
X355600Y273050D01*
X374650Y266700D02*
X381000Y273050D01*
X381000Y285750D01*
X361950Y317500D02*
X355600Y323850D01*
X355600Y336550D01*
X361950Y342900D01*
X374650Y342900D01*
X381000Y336550D01*
X381000Y323850D01*
X374650Y317500D01*
D12*
X346837Y270383D02*
X337947Y270383D01*
X346837Y270383D02*
X346937Y270381D01*
X347036Y270375D01*
X347136Y270365D01*
X347234Y270352D01*
X347333Y270334D01*
X347430Y270313D01*
X347526Y270288D01*
X347622Y270259D01*
X347716Y270226D01*
X347809Y270190D01*
X347900Y270150D01*
X347990Y270106D01*
X348078Y270059D01*
X348164Y270009D01*
X348248Y269955D01*
X348330Y269898D01*
X348409Y269838D01*
X348487Y269774D01*
X348561Y269708D01*
X348633Y269639D01*
X348702Y269567D01*
X348768Y269493D01*
X348832Y269415D01*
X348892Y269336D01*
X348949Y269254D01*
X349003Y269170D01*
X349053Y269084D01*
X349100Y268996D01*
X349144Y268906D01*
X349184Y268815D01*
X349220Y268722D01*
X349253Y268628D01*
X349282Y268532D01*
X349307Y268436D01*
X349328Y268339D01*
X349346Y268240D01*
X349359Y268142D01*
X349369Y268042D01*
X349375Y267943D01*
X349377Y267843D01*
X349377Y266573D01*
X349377Y276363D02*
X337947Y276363D01*
X337947Y279538D01*
X337949Y279649D01*
X337955Y279759D01*
X337964Y279870D01*
X337978Y279980D01*
X337995Y280089D01*
X338016Y280198D01*
X338041Y280306D01*
X338070Y280413D01*
X338102Y280519D01*
X338138Y280624D01*
X338178Y280727D01*
X338221Y280829D01*
X338268Y280930D01*
X338319Y281029D01*
X338372Y281126D01*
X338429Y281220D01*
X338490Y281313D01*
X338553Y281404D01*
X338620Y281493D01*
X338690Y281579D01*
X338763Y281662D01*
X338838Y281744D01*
X338916Y281822D01*
X338998Y281897D01*
X339081Y281970D01*
X339167Y282040D01*
X339256Y282107D01*
X339347Y282170D01*
X339440Y282231D01*
X339535Y282288D01*
X339631Y282341D01*
X339730Y282392D01*
X339831Y282439D01*
X339933Y282482D01*
X340036Y282522D01*
X340141Y282558D01*
X340247Y282590D01*
X340354Y282619D01*
X340462Y282644D01*
X340571Y282665D01*
X340680Y282682D01*
X340790Y282696D01*
X340901Y282705D01*
X341011Y282711D01*
X341122Y282713D01*
X341233Y282711D01*
X341343Y282705D01*
X341454Y282696D01*
X341564Y282682D01*
X341673Y282665D01*
X341782Y282644D01*
X341890Y282619D01*
X341997Y282590D01*
X342103Y282558D01*
X342208Y282522D01*
X342311Y282482D01*
X342413Y282439D01*
X342514Y282392D01*
X342613Y282341D01*
X342710Y282288D01*
X342804Y282231D01*
X342897Y282170D01*
X342988Y282107D01*
X343077Y282040D01*
X343163Y281970D01*
X343246Y281897D01*
X343328Y281822D01*
X343406Y281744D01*
X343481Y281662D01*
X343554Y281579D01*
X343624Y281493D01*
X343691Y281404D01*
X343754Y281313D01*
X343815Y281220D01*
X343872Y281126D01*
X343925Y281029D01*
X343976Y280930D01*
X344023Y280829D01*
X344066Y280727D01*
X344106Y280624D01*
X344142Y280519D01*
X344174Y280413D01*
X344203Y280306D01*
X344228Y280198D01*
X344249Y280089D01*
X344266Y279980D01*
X344280Y279870D01*
X344289Y279759D01*
X344295Y279649D01*
X344297Y279538D01*
X344297Y276363D01*
X340487Y287222D02*
X337947Y290397D01*
X349377Y290397D01*
X349377Y287222D02*
X349377Y293572D01*
X274950Y262890D02*
X233050Y262890D01*
X229870Y290759D02*
X230153Y291343D01*
X230451Y291919D01*
X230762Y292488D01*
X231087Y293049D01*
X231426Y293602D01*
X231778Y294147D01*
X232143Y294683D01*
X232521Y295210D01*
X232912Y295727D01*
X233315Y296235D01*
X233731Y296733D01*
X234158Y297221D01*
X234597Y297698D01*
X235048Y298165D01*
X235510Y298620D01*
X235983Y299064D01*
X236466Y299496D01*
X236960Y299917D01*
X237464Y300325D01*
X237978Y300721D01*
X238501Y301104D01*
X239033Y301475D01*
X239575Y301832D01*
X240124Y302176D01*
X240682Y302507D01*
X241248Y302824D01*
X241821Y303127D01*
X242402Y303416D01*
X242989Y303691D01*
X243583Y303952D01*
X244183Y304198D01*
X244789Y304429D01*
X245401Y304646D01*
X246017Y304847D01*
X246638Y305034D01*
X247264Y305205D01*
X247893Y305361D01*
X248526Y305502D01*
X249163Y305628D01*
X249802Y305737D01*
X250443Y305832D01*
X251087Y305910D01*
X251733Y305973D01*
X252380Y306021D01*
X253027Y306052D01*
X253676Y306068D01*
X254324Y306068D01*
X254973Y306052D01*
X255620Y306021D01*
X256267Y305973D01*
X256913Y305910D01*
X257557Y305832D01*
X258198Y305737D01*
X258837Y305628D01*
X259474Y305502D01*
X260107Y305361D01*
X260736Y305205D01*
X261362Y305034D01*
X261983Y304847D01*
X262599Y304646D01*
X263211Y304429D01*
X263817Y304198D01*
X264417Y303952D01*
X265011Y303691D01*
X265598Y303416D01*
X266179Y303127D01*
X266752Y302824D01*
X267318Y302507D01*
X267876Y302176D01*
X268425Y301832D01*
X268967Y301475D01*
X269499Y301104D01*
X270022Y300721D01*
X270536Y300325D01*
X271040Y299917D01*
X271534Y299496D01*
X272017Y299064D01*
X272490Y298620D01*
X272952Y298165D01*
X273403Y297698D01*
X273842Y297221D01*
X274269Y296733D01*
X274685Y296235D01*
X275088Y295727D01*
X275479Y295210D01*
X275857Y294683D01*
X276222Y294147D01*
X276574Y293602D01*
X276913Y293049D01*
X277238Y292488D01*
X277549Y291919D01*
X277847Y291343D01*
X278130Y290759D01*
X233050Y262890D02*
X232680Y263371D01*
X232321Y263860D01*
X231973Y264357D01*
X231636Y264862D01*
X231311Y265375D01*
X230998Y265895D01*
X230696Y266422D01*
X230407Y266955D01*
X230130Y267495D01*
X229865Y268041D01*
X239960Y278130D02*
X242640Y278130D01*
X265360Y278130D02*
X268040Y278130D01*
X278247Y268282D02*
X277976Y267709D01*
X277691Y267143D01*
X277394Y266584D01*
X277083Y266032D01*
X276758Y265488D01*
X276422Y264952D01*
X276072Y264423D01*
X275710Y263903D01*
X275336Y263392D01*
X274950Y262890D01*
X229235Y313690D02*
X229235Y318770D01*
X229237Y318881D01*
X229243Y318991D01*
X229252Y319102D01*
X229266Y319212D01*
X229283Y319321D01*
X229304Y319430D01*
X229329Y319538D01*
X229358Y319645D01*
X229390Y319751D01*
X229426Y319856D01*
X229466Y319959D01*
X229509Y320061D01*
X229556Y320162D01*
X229607Y320261D01*
X229660Y320358D01*
X229717Y320452D01*
X229778Y320545D01*
X229841Y320636D01*
X229908Y320725D01*
X229978Y320811D01*
X230051Y320894D01*
X230126Y320976D01*
X230204Y321054D01*
X230286Y321129D01*
X230369Y321202D01*
X230455Y321272D01*
X230544Y321339D01*
X230635Y321402D01*
X230728Y321463D01*
X230823Y321520D01*
X230919Y321573D01*
X231018Y321624D01*
X231119Y321671D01*
X231221Y321714D01*
X231324Y321754D01*
X231429Y321790D01*
X231535Y321822D01*
X231642Y321851D01*
X231750Y321876D01*
X231859Y321897D01*
X231968Y321914D01*
X232078Y321928D01*
X232189Y321937D01*
X232299Y321943D01*
X232410Y321945D01*
X232521Y321943D01*
X232631Y321937D01*
X232742Y321928D01*
X232852Y321914D01*
X232961Y321897D01*
X233070Y321876D01*
X233178Y321851D01*
X233285Y321822D01*
X233391Y321790D01*
X233496Y321754D01*
X233599Y321714D01*
X233701Y321671D01*
X233802Y321624D01*
X233901Y321573D01*
X233998Y321520D01*
X234092Y321463D01*
X234185Y321402D01*
X234276Y321339D01*
X234365Y321272D01*
X234451Y321202D01*
X234534Y321129D01*
X234616Y321054D01*
X234694Y320976D01*
X234769Y320894D01*
X234842Y320811D01*
X234912Y320725D01*
X234979Y320636D01*
X235042Y320545D01*
X235103Y320452D01*
X235160Y320358D01*
X235213Y320261D01*
X235264Y320162D01*
X235311Y320061D01*
X235354Y319959D01*
X235394Y319856D01*
X235430Y319751D01*
X235462Y319645D01*
X235491Y319538D01*
X235516Y319430D01*
X235537Y319321D01*
X235554Y319212D01*
X235568Y319102D01*
X235577Y318991D01*
X235583Y318881D01*
X235585Y318770D01*
X235585Y313690D01*
X235583Y313579D01*
X235577Y313469D01*
X235568Y313358D01*
X235554Y313248D01*
X235537Y313139D01*
X235516Y313030D01*
X235491Y312922D01*
X235462Y312815D01*
X235430Y312709D01*
X235394Y312604D01*
X235354Y312501D01*
X235311Y312399D01*
X235264Y312298D01*
X235213Y312199D01*
X235160Y312102D01*
X235103Y312008D01*
X235042Y311915D01*
X234979Y311824D01*
X234912Y311735D01*
X234842Y311649D01*
X234769Y311566D01*
X234694Y311484D01*
X234616Y311406D01*
X234534Y311331D01*
X234451Y311258D01*
X234365Y311188D01*
X234276Y311121D01*
X234185Y311058D01*
X234092Y310997D01*
X233997Y310940D01*
X233901Y310887D01*
X233802Y310836D01*
X233701Y310789D01*
X233599Y310746D01*
X233496Y310706D01*
X233391Y310670D01*
X233285Y310638D01*
X233178Y310609D01*
X233070Y310584D01*
X232961Y310563D01*
X232852Y310546D01*
X232742Y310532D01*
X232631Y310523D01*
X232521Y310517D01*
X232410Y310515D01*
X232299Y310517D01*
X232189Y310523D01*
X232078Y310532D01*
X231968Y310546D01*
X231859Y310563D01*
X231750Y310584D01*
X231642Y310609D01*
X231535Y310638D01*
X231429Y310670D01*
X231324Y310706D01*
X231221Y310746D01*
X231119Y310789D01*
X231018Y310836D01*
X230919Y310887D01*
X230823Y310940D01*
X230728Y310997D01*
X230635Y311058D01*
X230544Y311121D01*
X230455Y311188D01*
X230369Y311258D01*
X230286Y311331D01*
X230204Y311406D01*
X230126Y311484D01*
X230051Y311566D01*
X229978Y311649D01*
X229908Y311735D01*
X229841Y311824D01*
X229778Y311915D01*
X229717Y312008D01*
X229660Y312103D01*
X229607Y312199D01*
X229556Y312298D01*
X229509Y312399D01*
X229466Y312501D01*
X229426Y312604D01*
X229390Y312709D01*
X229358Y312815D01*
X229329Y312922D01*
X229304Y313030D01*
X229283Y313139D01*
X229266Y313248D01*
X229252Y313358D01*
X229243Y313469D01*
X229237Y313579D01*
X229235Y313690D01*
X234315Y313055D02*
X236855Y310515D01*
X240296Y319405D02*
X243471Y321945D01*
X243471Y310515D01*
X240296Y310515D02*
X246646Y310515D01*
D13*
X453100Y126900D02*
X453100Y-3600D01*
X370100Y-3600D01*
X370100Y126900D01*
X388100Y126900D02*
X404600Y126900D01*
X450100Y126900D02*
X453100Y126900D01*
X448100Y-4600D02*
X448100Y-33600D01*
X390100Y-33600D01*
X390100Y-4600D01*
D14*
X469392Y107922D02*
X457708Y115711D01*
X457708Y107922D02*
X469392Y115711D01*
X460304Y120001D02*
X457708Y123246D01*
X469392Y123246D01*
X469392Y120001D02*
X469392Y126492D01*
D13*
X288000Y126900D02*
X288000Y-3600D01*
X205000Y-3600D01*
X205000Y126900D01*
X223000Y126900D02*
X239500Y126900D01*
X285000Y126900D02*
X288000Y126900D01*
X283000Y-4600D02*
X283000Y-33600D01*
X225000Y-33600D01*
X225000Y-4600D01*
D14*
X304292Y107922D02*
X292608Y115711D01*
X292608Y107922D02*
X304292Y115711D01*
X295529Y126492D02*
X295422Y126490D01*
X295316Y126484D01*
X295210Y126474D01*
X295104Y126461D01*
X294998Y126443D01*
X294894Y126422D01*
X294790Y126397D01*
X294687Y126368D01*
X294586Y126336D01*
X294486Y126299D01*
X294387Y126259D01*
X294289Y126216D01*
X294193Y126169D01*
X294099Y126118D01*
X294007Y126064D01*
X293917Y126007D01*
X293829Y125947D01*
X293744Y125883D01*
X293661Y125816D01*
X293580Y125746D01*
X293502Y125674D01*
X293426Y125598D01*
X293354Y125520D01*
X293284Y125439D01*
X293217Y125356D01*
X293153Y125271D01*
X293093Y125183D01*
X293036Y125093D01*
X292982Y125001D01*
X292931Y124907D01*
X292884Y124811D01*
X292841Y124713D01*
X292801Y124614D01*
X292764Y124514D01*
X292732Y124413D01*
X292703Y124310D01*
X292678Y124206D01*
X292657Y124102D01*
X292639Y123996D01*
X292626Y123890D01*
X292616Y123784D01*
X292610Y123678D01*
X292608Y123571D01*
X292610Y123450D01*
X292616Y123329D01*
X292626Y123209D01*
X292639Y123088D01*
X292657Y122969D01*
X292678Y122849D01*
X292703Y122731D01*
X292732Y122614D01*
X292765Y122497D01*
X292801Y122382D01*
X292842Y122268D01*
X292885Y122155D01*
X292933Y122043D01*
X292984Y121934D01*
X293039Y121826D01*
X293097Y121719D01*
X293158Y121615D01*
X293223Y121513D01*
X293291Y121413D01*
X293362Y121315D01*
X293436Y121219D01*
X293513Y121126D01*
X293594Y121036D01*
X293677Y120948D01*
X293763Y120863D01*
X293852Y120780D01*
X293943Y120701D01*
X294037Y120624D01*
X294133Y120551D01*
X294231Y120481D01*
X294332Y120414D01*
X294435Y120350D01*
X294540Y120290D01*
X294647Y120232D01*
X294755Y120179D01*
X294865Y120129D01*
X294977Y120083D01*
X295090Y120040D01*
X295205Y120001D01*
X297801Y125518D02*
X297723Y125597D01*
X297643Y125673D01*
X297560Y125746D01*
X297474Y125816D01*
X297387Y125883D01*
X297296Y125947D01*
X297204Y126007D01*
X297110Y126065D01*
X297013Y126119D01*
X296915Y126169D01*
X296815Y126216D01*
X296714Y126260D01*
X296611Y126300D01*
X296506Y126336D01*
X296401Y126368D01*
X296294Y126397D01*
X296187Y126422D01*
X296078Y126444D01*
X295969Y126461D01*
X295860Y126475D01*
X295750Y126484D01*
X295639Y126490D01*
X295529Y126492D01*
X297801Y125518D02*
X304292Y120001D01*
X304292Y126492D01*
M02*
